<svg width="320" height="123" viewBox="0 0 320 123" fill="none" xmlns="http://www.w3.org/2000/svg">
<path d="M57.835 118.795C50.5448 119.456 52.5343 114.816 48.5554 114.816C44.5765 114.816 46.566 110.837 47.8945 110.837C49.223 110.837 51.8733 112.166 53.1952 114.816C54.5237 117.466 60.4853 118.134 60.4853 118.134C60.4853 118.134 53.8561 117.473 55.8455 113.494C57.835 109.515 53.1952 112.166 51.8667 108.854C50.5381 105.536 48.5487 109.515 48.5487 109.515L55.1779 104.214C55.1779 104.214 57.8283 92.9455 63.7966 90.2952C69.7649 87.6448 63.1357 92.2846 64.4575 88.3057C65.7793 84.3269 70.4258 81.6765 67.1078 75.7082C63.7899 69.7399 61.8071 68.4181 71.7476 69.079C81.6948 69.74 76.3874 75.0473 77.0483 81.0089C77.7092 86.9772 70.4191 93.6064 67.7688 96.9177C65.1184 100.236 59.1501 104.208 58.4892 108.848C57.8283 113.487 70.4191 94.9282 73.7371 92.2712C77.055 89.6209 71.7476 93.5997 73.7371 100.229C75.7265 106.858 77.7159 110.176 77.7159 112.826C77.7159 115.477 76.3874 118.795 77.7159 118.795C79.0444 118.795 88.9849 118.134 88.9849 118.134C88.9849 118.134 90.9743 117.473 89.6458 116.805C88.3173 116.144 86.3279 116.805 85.0061 114.816C83.6775 112.826 85.667 114.816 81.6881 114.155C77.7092 113.494 83.0166 116.805 83.6775 112.826C84.3384 108.848 81.6881 112.166 81.6881 105.536C81.6881 98.9071 79.6987 95.5892 81.0272 91.617C82.3557 87.6381 79.0377 87.6381 79.0377 79.0195C79.0377 70.4009 78.3768 69.0724 80.3663 69.0724C82.3557 69.0724 85.006 71.7227 85.667 66.422C86.3279 61.1213 85.667 65.0935 86.9955 63.1041C88.324 61.1146 85.006 58.4643 83.6775 54.4854C82.349 50.5066 85.006 42.5555 83.6775 37.9091C82.349 33.2693 78.3768 31.2799 78.3768 31.2799C78.3768 31.2799 82.3557 33.9302 72.4085 32.6084C62.4614 31.2799 63.129 30.619 67.1078 27.3077C71.0867 23.9898 67.7688 22.007 72.4085 22.6679C77.0483 23.3289 79.0377 27.9686 79.0377 29.2971C79.0377 30.6256 79.0378 27.3077 79.6987 25.9792C80.3596 24.6507 81.6881 22.6613 81.0272 22.6613C80.3663 22.6613 79.6987 23.3222 79.6987 23.3222C79.6987 23.3222 80.3596 21.9937 80.3596 18.6824C80.3596 15.3645 79.0311 15.3645 74.3913 16.0321C69.7515 16.6996 72.4019 20.0109 71.7409 21.3327C71.08 22.6613 75.7198 21.3327 77.0416 23.9831C78.3702 26.6334 81.6814 33.2626 75.0522 31.9408C68.423 30.6123 64.4441 29.2905 62.4547 33.2693C60.4653 37.2482 59.8044 43.8774 59.1368 43.8774C58.4759 43.8774 57.1473 39.8985 57.1473 51.1675C57.1473 62.4365 61.7871 67.0763 63.1156 66.4153C64.4441 65.7544 65.1051 49.1781 62.4547 45.8668C59.8044 42.5489 63.1156 39.8985 65.1051 47.1953C67.0945 54.4854 66.4336 67.0829 65.766 66.422C65.1051 65.7611 71.7343 59.7928 71.7343 59.7928C71.7343 59.7928 67.7554 54.4921 68.4163 45.2059C69.0773 35.9263 69.7448 34.5978 72.3952 34.5978C75.0455 34.5978 70.4058 32.6084 70.4058 41.888C70.4058 51.1675 72.3952 57.1358 73.7237 57.7967C75.0522 58.4576 75.0522 65.7544 71.7343 65.7544C68.4163 65.7544 79.672 68.4448 80.3396 69.1057" stroke="#DBD7D5" stroke-opacity="0.72" stroke-width="0.853659" stroke-miterlimit="10"/>
<g clip-path="url(#clip0_59551_61648)">
<g clip-path="url(#clip1_59551_61648)">
<mask id="path-2-outside-1_59551_61648" maskUnits="userSpaceOnUse" x="81.1857" y="48.4727" width="170" height="58" fill="black">
<rect fill="white" x="81.1857" y="48.4727" width="170" height="58"/>
<path d="M166.437 49.6097C167.361 48.9855 167.795 50.6623 168.157 51.2498C171.149 53.0858 173.493 55.8947 175.8 58.5201C176.504 59.4626 177.948 58.7282 178.787 59.4503C179.974 60.6437 180.935 62.0757 182.593 62.6571C184.044 63.2018 184.827 64.7501 186.155 65.3682C186.718 65.0071 187.305 64.2238 188.046 64.6277C189.398 65.6007 190.28 67.0633 191.4 68.2689C191.773 68.7157 192.385 68.7769 192.917 68.9054C194.092 69.1257 195.182 69.6826 196.1 70.4353C198.584 73.2076 198.382 71.849 200.848 73.5014C203.584 73.4769 206.528 72.9016 208.755 74.9273C209.318 75.576 213.431 77.6812 212.978 78.0973C212.672 78.2258 212.403 77.9872 212.146 77.8648C208.339 75.4719 206.595 73.1036 201.656 74.0277C202.323 74.7008 203.07 75.2822 203.761 75.9309C203.786 76.0227 203.829 76.2124 203.853 76.3042C202.55 76.0533 201.828 74.5723 200.616 74.0583C199.588 73.942 198.498 74.1623 197.513 73.7584C196.632 73.4157 196.118 72.5773 195.488 71.9224C194.937 71.3105 194.031 71.2982 193.413 70.7903C191.191 69.1379 189.766 66.6411 187.569 64.9949C185.102 67.4183 184.631 63.5995 181.308 62.6387C182.599 64.2482 183.346 66.2005 184.368 67.9691C185.151 68.6116 186.143 68.9788 186.987 69.548C187.281 69.6887 187.122 70.1905 186.785 69.9702C186.02 69.6887 185.335 69.2236 184.649 68.7952C185.91 72.4732 189.937 73.7339 192.519 76.3103L192.458 76.5551L192.207 76.6347C189.98 74.6641 187.097 73.3728 185.237 71.0412C184.582 70.1294 184.282 69.0156 183.676 68.0853C181.571 66.3902 180.127 64.0646 178.566 61.8982C177.783 60.8212 176.712 60.0072 175.659 59.2117C173.438 56.5679 171.106 53.8263 168.212 51.8863C168.273 53.0858 169.846 53.967 169.179 55.1971C169.429 56.2007 170.702 56.6046 171.357 57.3757C172.93 58.618 171.932 60.9313 173.248 62.2348C175.188 63.9484 177.618 65.1295 178.952 67.4611C180.635 68.8687 180.598 67.4734 182.507 70.3435C182.483 70.4353 182.428 70.6251 182.403 70.7169C181.7 70.3803 181.381 69.6214 180.843 69.1073C180.317 68.5443 179.399 68.6851 178.86 68.1343C177.599 66.2372 175.91 64.7929 173.989 63.5873C174.888 65.9557 170.072 64.2911 175.702 68.2934C176.847 69.346 177.153 70.9433 177.942 72.2346C181.149 74.4254 185.476 76.959 187.238 80.4779C186.767 80.5146 186.498 80.1046 186.185 79.8292C184.594 78.5196 182.263 78.4706 180.849 76.8489C179.607 75.6678 178.536 74.3092 177.703 72.8098C176.908 71.9286 175.745 71.3961 174.974 70.4353C173.548 72.5222 171.529 74.199 169.589 75.7902C169.099 75.7412 169.399 75.2944 169.601 75.1415C170.69 73.8441 174.576 71.3105 174.429 69.7071C174.331 69.2359 174.833 68.8075 174.601 68.3485C173.316 66.8185 171.021 65.8149 173.738 64.1626C173.407 63.1283 172.477 62.4368 172.134 61.4209C172.043 59.0036 171.394 57.8163 169.429 56.4088C170.06 58.2692 168.163 59.5421 167 60.6682C166.884 62.957 164.632 64.2299 163.138 65.668C163.047 65.6374 162.863 65.5762 162.771 65.5456C163.756 63.8994 166.033 63.11 166.486 61.0782C163.952 63.0243 161.945 65.5395 159.032 66.9409C157.055 68.373 155.654 70.4659 153.647 71.8612C153.567 71.7878 153.42 71.6348 153.341 71.5614C155.378 69.7132 157.129 67.4672 159.479 65.9985C162.245 64.6827 164.032 62.0635 166.541 60.3622C166.455 58.7527 167.055 57.235 168.34 56.2313C168.016 55.5949 168.389 54.9645 168.946 54.6279C168.554 53.6121 167.771 52.8287 167.753 51.666C167.269 51.2988 166.669 51.0723 166.339 50.5277C164.356 52.5105 162.881 55.2338 160.397 56.6169C159.705 56.4822 159.307 55.7785 158.659 55.5643C157.814 56.0783 157.41 57.0514 156.713 57.7246C156.78 57.7919 156.921 57.9204 156.994 57.9816C156.866 57.9938 156.608 58.0183 156.48 58.0305C155.623 59.1872 156.186 60.6926 155.837 61.99C155.58 62.9141 155.232 63.8076 154.987 64.7378C153.689 68.3057 149.516 69.4745 146.578 71.3594C145.158 72.4549 143.879 73.74 142.362 74.7008C142.068 74.9395 141.811 74.3826 142.129 74.2541C145.966 71.3043 149.344 67.6325 153.897 65.7659C154.699 64.2054 155.323 62.3572 155.446 60.5947C155.397 59.6706 155.464 58.7343 155.874 57.8898C155.378 57.7919 154.901 57.6328 154.448 57.4063C150.678 61.2618 148.022 66.3902 142.967 68.8136C142.723 68.9911 142.343 68.9544 142.386 68.581C145.201 66.9226 147.79 64.8786 149.699 62.2042C148.488 63.0977 147.557 64.389 146.15 64.9887C145.379 64.5971 144.712 64.0402 143.928 63.6791C142.496 64.0035 142.123 66.1087 140.66 66.2311C140.728 65.7782 141.119 65.515 141.413 65.209C140.917 65.0132 140.293 64.8174 139.834 65.2029C138.219 66.635 136.866 68.3424 135.238 69.7622C132.956 71.6471 129.859 71.9347 127.417 73.5381C129.749 75.4658 132.374 77.1365 135.201 78.2503C136.26 78.6053 137.435 78.7827 138.298 79.5477C139.859 80.9124 141.101 82.6198 142.778 83.856C143.475 82.3444 143.971 82.9381 144.84 83.8866C149.705 88.452 156.896 89.4985 163.212 90.8387C172.018 89.8473 180.555 86.6405 188.737 83.3358C192.556 81.9834 195.273 78.8684 198.737 76.9162C201.938 75.8758 205.567 79.7191 208.284 81.096C212.292 83.4766 216.607 85.5084 221.307 85.9245C217.696 84.468 213.78 83.5806 210.322 81.8243C213.792 80.5942 217.445 79.5905 220.811 77.9443C221.778 77.5159 222.696 78.3237 223.675 78.2809C225.493 78.079 227.231 76.4266 229.024 77.7362C233.92 80.7288 244.39 79.5416 249.867 79.8659C250.112 79.8598 250.638 79.9026 250.455 80.3004C245.804 80.5513 236.588 80.4412 231.961 79.6946C230.34 79.309 229.073 78.0667 227.439 77.724C226.001 77.8403 224.771 79.0153 223.284 78.7276C224.281 79.462 225.322 80.1413 226.497 80.5513C226.87 80.5942 226.588 81.2245 226.27 80.9858C224.899 80.5819 223.779 79.664 222.586 78.9174C221.619 78.2687 220.395 78.7154 219.422 79.1132C216.858 80.2209 214.245 81.2429 211.521 81.8855C214.153 82.8279 216.809 83.6908 219.416 84.6944C220.805 85.0433 222.219 86.0102 223.675 85.7348C230.995 83.3726 240.345 82.6443 248.007 82.9442C248.344 82.9625 248.895 82.8524 248.815 83.3787C244.641 83.4521 238.712 83.3542 234.556 83.8071C226.093 85.0555 218.106 88.4765 209.618 89.6576C200.628 90.8387 191.546 91.1998 182.679 93.1826C182.697 93.1948 182.74 93.2193 182.758 93.2377C189.209 92.8093 195.383 94.8227 201.662 95.8753C215.94 93.7028 227.88 94.1128 242.268 94.4922C242.378 94.688 242.396 94.89 242.255 95.0736C218.119 93.7334 196.271 95.3673 173.083 102.564C176.033 103.531 179.062 104.357 181.993 105.41C182.232 105.496 182.74 105.624 182.465 105.991C178.848 105.135 175.341 103.647 171.688 102.821C171.033 102.968 170.39 103.329 169.711 103.207C169.607 102.723 170.201 102.717 170.519 102.552C158.891 99.4186 146.909 97.2278 134.865 98.9291C140.636 99.896 146.395 101.071 152.086 102.454C152.459 102.895 151.768 102.986 151.492 102.84C143.188 101.187 134.944 98.6231 126.432 99.2962C126.01 98.3966 130.373 98.8434 130.973 98.8128C116.603 95.9242 101.8 94.9145 87.1611 94.7186C87.1917 94.6207 87.2468 94.431 87.2774 94.3331C102.601 94.1556 117.999 95.6488 133.017 98.6353C141.444 97.5949 150.048 97.4236 158.383 99.2412C162.367 100.073 166.339 100.942 170.274 101.989C170.941 102.136 171.62 102.54 172.306 102.264C181.228 99.4125 190.457 97.7541 199.631 96.016C185.708 92.8215 181.375 93.3417 167.532 95.8324C168.432 96.1629 169.448 95.9365 170.323 96.322C170.28 96.4199 170.194 96.6158 170.145 96.7137C165.531 95.9365 160.88 96.1996 156.211 96.1017C145.617 95.6917 135.067 94.4616 124.682 92.3258C117.399 90.955 110.288 88.6478 102.895 87.889C96.4693 87.1056 89.9823 88.1521 83.5566 88.3724C83.679 88.0726 83.8687 87.8033 84.2359 87.8706C92.418 86.922 100.643 87.3198 108.837 86.7813C113.684 86.6038 118.47 85.2085 123.329 85.4533C129.088 86.714 134.614 89.0272 140.562 89.5413C144.589 88.5989 148.922 88.3847 152.992 88.8926C149.552 87.7115 145.997 86.3713 143.641 83.4154C143.249 84.1559 142.919 84.8842 142.098 84.0641C140.636 82.8157 139.442 81.2796 138.004 80.0128C137.227 79.3335 136.181 79.1622 135.238 78.8317C133.255 78.2013 131.505 77.0569 129.767 75.9493C127.356 74.5968 125.661 72.3876 123.543 70.6924C122.827 71.029 122.368 71.9224 121.554 71.9714C120.869 71.4818 120.232 70.9188 119.639 70.3191C114.657 73.177 109.945 76.5612 104.688 78.9112C97.5097 81.7325 89.8844 83.7459 82.1857 84.2355C82.2163 84.1375 82.2714 83.9478 82.302 83.8499C90.1476 82.8891 97.9809 81.2123 105.257 78.0483C110.245 75.6616 114.761 72.4488 119.565 69.7377C120.337 70.2273 120.973 70.8882 121.677 71.4696C122.283 70.9922 122.821 70.4231 123.513 70.0682C124.89 70.7842 125.844 72.2101 126.976 73.2566C129.198 71.4879 132.246 71.3166 134.504 69.6031C136.266 68.2077 137.607 66.3596 139.314 64.9092C139.981 64.2788 140.972 64.5053 141.75 64.7623C143.726 62.4184 143.983 63.2079 146.278 64.3706C148.475 62.602 150.691 60.7538 152.563 58.6119C153.934 56.8433 154.081 56.7699 156.223 57.4247C157.888 55.6805 157.955 53.9303 160.384 56.0845C162.747 54.2914 164.35 51.6904 166.437 49.6097ZM166.718 50.0565C166.896 50.3992 167.092 50.7786 167.489 50.901C167.269 50.5889 167.092 50.2095 166.718 50.0565ZM167.073 59.8053C167.948 59.0097 169.582 57.8714 168.897 56.5373C167.789 57.2289 166.988 58.465 167.073 59.8053ZM177.104 59.6094C179.558 61.8003 180.916 64.9214 183.358 67.1368C182.061 64.34 180.249 61.886 178.162 59.6278C177.807 59.6156 177.453 59.6156 177.104 59.6094ZM152.08 67.2286C150.795 67.8834 149.669 68.7891 148.555 69.6887C150.226 68.832 151.792 67.7794 153.243 66.5921C152.79 66.6717 152.49 67.0511 152.08 67.2286ZM175.176 68.5137C175.103 68.9054 175.011 69.2909 174.888 69.6704C175.586 70.3435 176.271 71.0412 177.036 71.6409C176.504 70.5577 176.106 69.3399 175.176 68.5137ZM192.532 69.3583C193.315 70.2701 194.343 70.7291 195.432 71.1514C197.244 72.9506 197.189 73.5564 199.992 73.6299C199.306 72.9567 198.174 73.1709 197.47 72.5222C196.136 71.0228 194.582 69.6948 192.532 69.3583ZM178.444 73.1464C180.023 75.729 182.232 77.8403 185.212 78.6297C183.266 76.4756 180.843 74.762 178.444 73.1464ZM198.664 78.287C196.858 79.8414 195.279 81.6345 193.492 83.2073C185.91 88.966 174.325 90.5939 165.005 91.2181C172.202 92.6012 179.809 94.1005 186.944 91.8301C198.339 89.8167 210.151 90.1533 221.233 86.4508C221.282 86.4998 221.386 86.5916 221.435 86.6405L221.307 86.2244C221.221 86.3039 221.136 86.3835 221.05 86.4569C215.683 86.0163 211.075 83.2318 206.411 80.8267C204.881 80.0862 203.247 79.4987 201.919 78.3972C200.763 77.265 199.857 77.0631 198.664 78.287ZM193.817 81.145C186.271 86.0102 177.251 88.1827 168.652 90.4593C168.97 90.4776 169.295 90.4837 169.613 90.4837L169.558 90.343C176.688 89.5964 183.829 87.8951 190.31 84.774C193.578 83.14 195.702 79.9883 198.48 77.7056C196.742 78.593 195.383 80.0189 193.817 81.145ZM202.415 78.0912C203.247 78.8745 204.325 79.309 205.34 79.7925C204.41 79.1744 203.443 78.5624 202.415 78.0912ZM116.536 86.4814C112.362 87.0444 108.14 87.6075 103.923 87.4606C107.43 87.993 111.077 88.5744 114.566 89.5229C130.838 93.4824 147.551 95.9487 164.332 95.6182C152.618 92.3197 147.796 88.911 134.767 90.5755C134.822 90.4715 134.926 90.2634 134.981 90.1655C136.279 89.9697 137.594 89.8473 138.91 89.8779C133.678 89.2231 128.763 87.3688 123.709 86.0347C121.31 85.8878 118.898 86.053 116.536 86.4814ZM142.521 89.6821C150.789 89.4985 158.053 93.7701 165.929 95.5571C170.219 94.994 174.546 94.1679 178.78 93.4151C166.541 93.8007 154.773 87.3933 142.521 89.6821Z"/>
</mask>
<path d="M166.437 49.6097C167.361 48.9855 167.795 50.6623 168.157 51.2498C171.149 53.0858 173.493 55.8947 175.8 58.5201C176.504 59.4626 177.948 58.7282 178.787 59.4503C179.974 60.6437 180.935 62.0757 182.593 62.6571C184.044 63.2018 184.827 64.7501 186.155 65.3682C186.718 65.0071 187.305 64.2238 188.046 64.6277C189.398 65.6007 190.28 67.0633 191.4 68.2689C191.773 68.7157 192.385 68.7769 192.917 68.9054C194.092 69.1257 195.182 69.6826 196.1 70.4353C198.584 73.2076 198.382 71.849 200.848 73.5014C203.584 73.4769 206.528 72.9016 208.755 74.9273C209.318 75.576 213.431 77.6812 212.978 78.0973C212.672 78.2258 212.403 77.9872 212.146 77.8648C208.339 75.4719 206.595 73.1036 201.656 74.0277C202.323 74.7008 203.07 75.2822 203.761 75.9309C203.786 76.0227 203.829 76.2124 203.853 76.3042C202.55 76.0533 201.828 74.5723 200.616 74.0583C199.588 73.942 198.498 74.1623 197.513 73.7584C196.632 73.4157 196.118 72.5773 195.488 71.9224C194.937 71.3105 194.031 71.2982 193.413 70.7903C191.191 69.1379 189.766 66.6411 187.569 64.9949C185.102 67.4183 184.631 63.5995 181.308 62.6387C182.599 64.2482 183.346 66.2005 184.368 67.9691C185.151 68.6116 186.143 68.9788 186.987 69.548C187.281 69.6887 187.122 70.1905 186.785 69.9702C186.02 69.6887 185.335 69.2236 184.649 68.7952C185.91 72.4732 189.937 73.7339 192.519 76.3103L192.458 76.5551L192.207 76.6347C189.98 74.6641 187.097 73.3728 185.237 71.0412C184.582 70.1294 184.282 69.0156 183.676 68.0853C181.571 66.3902 180.127 64.0646 178.566 61.8982C177.783 60.8212 176.712 60.0072 175.659 59.2117C173.438 56.5679 171.106 53.8263 168.212 51.8863C168.273 53.0858 169.846 53.967 169.179 55.1971C169.429 56.2007 170.702 56.6046 171.357 57.3757C172.93 58.618 171.932 60.9313 173.248 62.2348C175.188 63.9484 177.618 65.1295 178.952 67.4611C180.635 68.8687 180.598 67.4734 182.507 70.3435C182.483 70.4353 182.428 70.6251 182.403 70.7169C181.7 70.3803 181.381 69.6214 180.843 69.1073C180.317 68.5443 179.399 68.6851 178.86 68.1343C177.599 66.2372 175.91 64.7929 173.989 63.5873C174.888 65.9557 170.072 64.2911 175.702 68.2934C176.847 69.346 177.153 70.9433 177.942 72.2346C181.149 74.4254 185.476 76.959 187.238 80.4779C186.767 80.5146 186.498 80.1046 186.185 79.8292C184.594 78.5196 182.263 78.4706 180.849 76.8489C179.607 75.6678 178.536 74.3092 177.703 72.8098C176.908 71.9286 175.745 71.3961 174.974 70.4353C173.548 72.5222 171.529 74.199 169.589 75.7902C169.099 75.7412 169.399 75.2944 169.601 75.1415C170.69 73.8441 174.576 71.3105 174.429 69.7071C174.331 69.2359 174.833 68.8075 174.601 68.3485C173.316 66.8185 171.021 65.8149 173.738 64.1626C173.407 63.1283 172.477 62.4368 172.134 61.4209C172.043 59.0036 171.394 57.8163 169.429 56.4088C170.06 58.2692 168.163 59.5421 167 60.6682C166.884 62.957 164.632 64.2299 163.138 65.668C163.047 65.6374 162.863 65.5762 162.771 65.5456C163.756 63.8994 166.033 63.11 166.486 61.0782C163.952 63.0243 161.945 65.5395 159.032 66.9409C157.055 68.373 155.654 70.4659 153.647 71.8612C153.567 71.7878 153.42 71.6348 153.341 71.5614C155.378 69.7132 157.129 67.4672 159.479 65.9985C162.245 64.6827 164.032 62.0635 166.541 60.3622C166.455 58.7527 167.055 57.235 168.34 56.2313C168.016 55.5949 168.389 54.9645 168.946 54.6279C168.554 53.6121 167.771 52.8287 167.753 51.666C167.269 51.2988 166.669 51.0723 166.339 50.5277C164.356 52.5105 162.881 55.2338 160.397 56.6169C159.705 56.4822 159.307 55.7785 158.659 55.5643C157.814 56.0783 157.41 57.0514 156.713 57.7246C156.78 57.7919 156.921 57.9204 156.994 57.9816C156.866 57.9938 156.608 58.0183 156.48 58.0305C155.623 59.1872 156.186 60.6926 155.837 61.99C155.58 62.9141 155.232 63.8076 154.987 64.7378C153.689 68.3057 149.516 69.4745 146.578 71.3594C145.158 72.4549 143.879 73.74 142.362 74.7008C142.068 74.9395 141.811 74.3826 142.129 74.2541C145.966 71.3043 149.344 67.6325 153.897 65.7659C154.699 64.2054 155.323 62.3572 155.446 60.5947C155.397 59.6706 155.464 58.7343 155.874 57.8898C155.378 57.7919 154.901 57.6328 154.448 57.4063C150.678 61.2618 148.022 66.3902 142.967 68.8136C142.723 68.9911 142.343 68.9544 142.386 68.581C145.201 66.9226 147.79 64.8786 149.699 62.2042C148.488 63.0977 147.557 64.389 146.15 64.9887C145.379 64.5971 144.712 64.0402 143.928 63.6791C142.496 64.0035 142.123 66.1087 140.66 66.2311C140.728 65.7782 141.119 65.515 141.413 65.209C140.917 65.0132 140.293 64.8174 139.834 65.2029C138.219 66.635 136.866 68.3424 135.238 69.7622C132.956 71.6471 129.859 71.9347 127.417 73.5381C129.749 75.4658 132.374 77.1365 135.201 78.2503C136.26 78.6053 137.435 78.7827 138.298 79.5477C139.859 80.9124 141.101 82.6198 142.778 83.856C143.475 82.3444 143.971 82.9381 144.84 83.8866C149.705 88.452 156.896 89.4985 163.212 90.8387C172.018 89.8473 180.555 86.6405 188.737 83.3358C192.556 81.9834 195.273 78.8684 198.737 76.9162C201.938 75.8758 205.567 79.7191 208.284 81.096C212.292 83.4766 216.607 85.5084 221.307 85.9245C217.696 84.468 213.78 83.5806 210.322 81.8243C213.792 80.5942 217.445 79.5905 220.811 77.9443C221.778 77.5159 222.696 78.3237 223.675 78.2809C225.493 78.079 227.231 76.4266 229.024 77.7362C233.92 80.7288 244.39 79.5416 249.867 79.8659C250.112 79.8598 250.638 79.9026 250.455 80.3004C245.804 80.5513 236.588 80.4412 231.961 79.6946C230.34 79.309 229.073 78.0667 227.439 77.724C226.001 77.8403 224.771 79.0153 223.284 78.7276C224.281 79.462 225.322 80.1413 226.497 80.5513C226.87 80.5942 226.588 81.2245 226.27 80.9858C224.899 80.5819 223.779 79.664 222.586 78.9174C221.619 78.2687 220.395 78.7154 219.422 79.1132C216.858 80.2209 214.245 81.2429 211.521 81.8855C214.153 82.8279 216.809 83.6908 219.416 84.6944C220.805 85.0433 222.219 86.0102 223.675 85.7348C230.995 83.3726 240.345 82.6443 248.007 82.9442C248.344 82.9625 248.895 82.8524 248.815 83.3787C244.641 83.4521 238.712 83.3542 234.556 83.8071C226.093 85.0555 218.106 88.4765 209.618 89.6576C200.628 90.8387 191.546 91.1998 182.679 93.1826C182.697 93.1948 182.74 93.2193 182.758 93.2377C189.209 92.8093 195.383 94.8227 201.662 95.8753C215.94 93.7028 227.88 94.1128 242.268 94.4922C242.378 94.688 242.396 94.89 242.255 95.0736C218.119 93.7334 196.271 95.3673 173.083 102.564C176.033 103.531 179.062 104.357 181.993 105.41C182.232 105.496 182.74 105.624 182.465 105.991C178.848 105.135 175.341 103.647 171.688 102.821C171.033 102.968 170.39 103.329 169.711 103.207C169.607 102.723 170.201 102.717 170.519 102.552C158.891 99.4186 146.909 97.2278 134.865 98.9291C140.636 99.896 146.395 101.071 152.086 102.454C152.459 102.895 151.768 102.986 151.492 102.84C143.188 101.187 134.944 98.6231 126.432 99.2962C126.01 98.3966 130.373 98.8434 130.973 98.8128C116.603 95.9242 101.8 94.9145 87.1611 94.7186C87.1917 94.6207 87.2468 94.431 87.2774 94.3331C102.601 94.1556 117.999 95.6488 133.017 98.6353C141.444 97.5949 150.048 97.4236 158.383 99.2412C162.367 100.073 166.339 100.942 170.274 101.989C170.941 102.136 171.62 102.54 172.306 102.264C181.228 99.4125 190.457 97.7541 199.631 96.016C185.708 92.8215 181.375 93.3417 167.532 95.8324C168.432 96.1629 169.448 95.9365 170.323 96.322C170.28 96.4199 170.194 96.6158 170.145 96.7137C165.531 95.9365 160.88 96.1996 156.211 96.1017C145.617 95.6917 135.067 94.4616 124.682 92.3258C117.399 90.955 110.288 88.6478 102.895 87.889C96.4693 87.1056 89.9823 88.1521 83.5566 88.3724C83.679 88.0726 83.8687 87.8033 84.2359 87.8706C92.418 86.922 100.643 87.3198 108.837 86.7813C113.684 86.6038 118.47 85.2085 123.329 85.4533C129.088 86.714 134.614 89.0272 140.562 89.5413C144.589 88.5989 148.922 88.3847 152.992 88.8926C149.552 87.7115 145.997 86.3713 143.641 83.4154C143.249 84.1559 142.919 84.8842 142.098 84.0641C140.636 82.8157 139.442 81.2796 138.004 80.0128C137.227 79.3335 136.181 79.1622 135.238 78.8317C133.255 78.2013 131.505 77.0569 129.767 75.9493C127.356 74.5968 125.661 72.3876 123.543 70.6924C122.827 71.029 122.368 71.9224 121.554 71.9714C120.869 71.4818 120.232 70.9188 119.639 70.3191C114.657 73.177 109.945 76.5612 104.688 78.9112C97.5097 81.7325 89.8844 83.7459 82.1857 84.2355C82.2163 84.1375 82.2714 83.9478 82.302 83.8499C90.1476 82.8891 97.9809 81.2123 105.257 78.0483C110.245 75.6616 114.761 72.4488 119.565 69.7377C120.337 70.2273 120.973 70.8882 121.677 71.4696C122.283 70.9922 122.821 70.4231 123.513 70.0682C124.89 70.7842 125.844 72.2101 126.976 73.2566C129.198 71.4879 132.246 71.3166 134.504 69.6031C136.266 68.2077 137.607 66.3596 139.314 64.9092C139.981 64.2788 140.972 64.5053 141.75 64.7623C143.726 62.4184 143.983 63.2079 146.278 64.3706C148.475 62.602 150.691 60.7538 152.563 58.6119C153.934 56.8433 154.081 56.7699 156.223 57.4247C157.888 55.6805 157.955 53.9303 160.384 56.0845C162.747 54.2914 164.35 51.6904 166.437 49.6097ZM166.718 50.0565C166.896 50.3992 167.092 50.7786 167.489 50.901C167.269 50.5889 167.092 50.2095 166.718 50.0565ZM167.073 59.8053C167.948 59.0097 169.582 57.8714 168.897 56.5373C167.789 57.2289 166.988 58.465 167.073 59.8053ZM177.104 59.6094C179.558 61.8003 180.916 64.9214 183.358 67.1368C182.061 64.34 180.249 61.886 178.162 59.6278C177.807 59.6156 177.453 59.6156 177.104 59.6094ZM152.08 67.2286C150.795 67.8834 149.669 68.7891 148.555 69.6887C150.226 68.832 151.792 67.7794 153.243 66.5921C152.79 66.6717 152.49 67.0511 152.08 67.2286ZM175.176 68.5137C175.103 68.9054 175.011 69.2909 174.888 69.6704C175.586 70.3435 176.271 71.0412 177.036 71.6409C176.504 70.5577 176.106 69.3399 175.176 68.5137ZM192.532 69.3583C193.315 70.2701 194.343 70.7291 195.432 71.1514C197.244 72.9506 197.189 73.5564 199.992 73.6299C199.306 72.9567 198.174 73.1709 197.47 72.5222C196.136 71.0228 194.582 69.6948 192.532 69.3583ZM178.444 73.1464C180.023 75.729 182.232 77.8403 185.212 78.6297C183.266 76.4756 180.843 74.762 178.444 73.1464ZM198.664 78.287C196.858 79.8414 195.279 81.6345 193.492 83.2073C185.91 88.966 174.325 90.5939 165.005 91.2181C172.202 92.6012 179.809 94.1005 186.944 91.8301C198.339 89.8167 210.151 90.1533 221.233 86.4508C221.282 86.4998 221.386 86.5916 221.435 86.6405L221.307 86.2244C221.221 86.3039 221.136 86.3835 221.05 86.4569C215.683 86.0163 211.075 83.2318 206.411 80.8267C204.881 80.0862 203.247 79.4987 201.919 78.3972C200.763 77.265 199.857 77.0631 198.664 78.287ZM193.817 81.145C186.271 86.0102 177.251 88.1827 168.652 90.4593C168.97 90.4776 169.295 90.4837 169.613 90.4837L169.558 90.343C176.688 89.5964 183.829 87.8951 190.31 84.774C193.578 83.14 195.702 79.9883 198.48 77.7056C196.742 78.593 195.383 80.0189 193.817 81.145ZM202.415 78.0912C203.247 78.8745 204.325 79.309 205.34 79.7925C204.41 79.1744 203.443 78.5624 202.415 78.0912ZM116.536 86.4814C112.362 87.0444 108.14 87.6075 103.923 87.4606C107.43 87.993 111.077 88.5744 114.566 89.5229C130.838 93.4824 147.551 95.9487 164.332 95.6182C152.618 92.3197 147.796 88.911 134.767 90.5755C134.822 90.4715 134.926 90.2634 134.981 90.1655C136.279 89.9697 137.594 89.8473 138.91 89.8779C133.678 89.2231 128.763 87.3688 123.709 86.0347C121.31 85.8878 118.898 86.053 116.536 86.4814ZM142.521 89.6821C150.789 89.4985 158.053 93.7701 165.929 95.5571C170.219 94.994 174.546 94.1679 178.78 93.4151C166.541 93.8007 154.773 87.3933 142.521 89.6821Z" fill="#DBD7D5" fill-opacity="0.72"/>
<path d="M166.437 49.6097C167.361 48.9855 167.795 50.6623 168.157 51.2498C171.149 53.0858 173.493 55.8947 175.8 58.5201C176.504 59.4626 177.948 58.7282 178.787 59.4503C179.974 60.6437 180.935 62.0757 182.593 62.6571C184.044 63.2018 184.827 64.7501 186.155 65.3682C186.718 65.0071 187.305 64.2238 188.046 64.6277C189.398 65.6007 190.28 67.0633 191.4 68.2689C191.773 68.7157 192.385 68.7769 192.917 68.9054C194.092 69.1257 195.182 69.6826 196.1 70.4353C198.584 73.2076 198.382 71.849 200.848 73.5014C203.584 73.4769 206.528 72.9016 208.755 74.9273C209.318 75.576 213.431 77.6812 212.978 78.0973C212.672 78.2258 212.403 77.9872 212.146 77.8648C208.339 75.4719 206.595 73.1036 201.656 74.0277C202.323 74.7008 203.07 75.2822 203.761 75.9309C203.786 76.0227 203.829 76.2124 203.853 76.3042C202.55 76.0533 201.828 74.5723 200.616 74.0583C199.588 73.942 198.498 74.1623 197.513 73.7584C196.632 73.4157 196.118 72.5773 195.488 71.9224C194.937 71.3105 194.031 71.2982 193.413 70.7903C191.191 69.1379 189.766 66.6411 187.569 64.9949C185.102 67.4183 184.631 63.5995 181.308 62.6387C182.599 64.2482 183.346 66.2005 184.368 67.9691C185.151 68.6116 186.143 68.9788 186.987 69.548C187.281 69.6887 187.122 70.1905 186.785 69.9702C186.02 69.6887 185.335 69.2236 184.649 68.7952C185.91 72.4732 189.937 73.7339 192.519 76.3103L192.458 76.5551L192.207 76.6347C189.98 74.6641 187.097 73.3728 185.237 71.0412C184.582 70.1294 184.282 69.0156 183.676 68.0853C181.571 66.3902 180.127 64.0646 178.566 61.8982C177.783 60.8212 176.712 60.0072 175.659 59.2117C173.438 56.5679 171.106 53.8263 168.212 51.8863C168.273 53.0858 169.846 53.967 169.179 55.1971C169.429 56.2007 170.702 56.6046 171.357 57.3757C172.93 58.618 171.932 60.9313 173.248 62.2348C175.188 63.9484 177.618 65.1295 178.952 67.4611C180.635 68.8687 180.598 67.4734 182.507 70.3435C182.483 70.4353 182.428 70.6251 182.403 70.7169C181.7 70.3803 181.381 69.6214 180.843 69.1073C180.317 68.5443 179.399 68.6851 178.86 68.1343C177.599 66.2372 175.91 64.7929 173.989 63.5873C174.888 65.9557 170.072 64.2911 175.702 68.2934C176.847 69.346 177.153 70.9433 177.942 72.2346C181.149 74.4254 185.476 76.959 187.238 80.4779C186.767 80.5146 186.498 80.1046 186.185 79.8292C184.594 78.5196 182.263 78.4706 180.849 76.8489C179.607 75.6678 178.536 74.3092 177.703 72.8098C176.908 71.9286 175.745 71.3961 174.974 70.4353C173.548 72.5222 171.529 74.199 169.589 75.7902C169.099 75.7412 169.399 75.2944 169.601 75.1415C170.69 73.8441 174.576 71.3105 174.429 69.7071C174.331 69.2359 174.833 68.8075 174.601 68.3485C173.316 66.8185 171.021 65.8149 173.738 64.1626C173.407 63.1283 172.477 62.4368 172.134 61.4209C172.043 59.0036 171.394 57.8163 169.429 56.4088C170.06 58.2692 168.163 59.5421 167 60.6682C166.884 62.957 164.632 64.2299 163.138 65.668C163.047 65.6374 162.863 65.5762 162.771 65.5456C163.756 63.8994 166.033 63.11 166.486 61.0782C163.952 63.0243 161.945 65.5395 159.032 66.9409C157.055 68.373 155.654 70.4659 153.647 71.8612C153.567 71.7878 153.42 71.6348 153.341 71.5614C155.378 69.7132 157.129 67.4672 159.479 65.9985C162.245 64.6827 164.032 62.0635 166.541 60.3622C166.455 58.7527 167.055 57.235 168.34 56.2313C168.016 55.5949 168.389 54.9645 168.946 54.6279C168.554 53.6121 167.771 52.8287 167.753 51.666C167.269 51.2988 166.669 51.0723 166.339 50.5277C164.356 52.5105 162.881 55.2338 160.397 56.6169C159.705 56.4822 159.307 55.7785 158.659 55.5643C157.814 56.0783 157.41 57.0514 156.713 57.7246C156.78 57.7919 156.921 57.9204 156.994 57.9816C156.866 57.9938 156.608 58.0183 156.48 58.0305C155.623 59.1872 156.186 60.6926 155.837 61.99C155.58 62.9141 155.232 63.8076 154.987 64.7378C153.689 68.3057 149.516 69.4745 146.578 71.3594C145.158 72.4549 143.879 73.74 142.362 74.7008C142.068 74.9395 141.811 74.3826 142.129 74.2541C145.966 71.3043 149.344 67.6325 153.897 65.7659C154.699 64.2054 155.323 62.3572 155.446 60.5947C155.397 59.6706 155.464 58.7343 155.874 57.8898C155.378 57.7919 154.901 57.6328 154.448 57.4063C150.678 61.2618 148.022 66.3902 142.967 68.8136C142.723 68.9911 142.343 68.9544 142.386 68.581C145.201 66.9226 147.79 64.8786 149.699 62.2042C148.488 63.0977 147.557 64.389 146.15 64.9887C145.379 64.5971 144.712 64.0402 143.928 63.6791C142.496 64.0035 142.123 66.1087 140.66 66.2311C140.728 65.7782 141.119 65.515 141.413 65.209C140.917 65.0132 140.293 64.8174 139.834 65.2029C138.219 66.635 136.866 68.3424 135.238 69.7622C132.956 71.6471 129.859 71.9347 127.417 73.5381C129.749 75.4658 132.374 77.1365 135.201 78.2503C136.26 78.6053 137.435 78.7827 138.298 79.5477C139.859 80.9124 141.101 82.6198 142.778 83.856C143.475 82.3444 143.971 82.9381 144.84 83.8866C149.705 88.452 156.896 89.4985 163.212 90.8387C172.018 89.8473 180.555 86.6405 188.737 83.3358C192.556 81.9834 195.273 78.8684 198.737 76.9162C201.938 75.8758 205.567 79.7191 208.284 81.096C212.292 83.4766 216.607 85.5084 221.307 85.9245C217.696 84.468 213.78 83.5806 210.322 81.8243C213.792 80.5942 217.445 79.5905 220.811 77.9443C221.778 77.5159 222.696 78.3237 223.675 78.2809C225.493 78.079 227.231 76.4266 229.024 77.7362C233.92 80.7288 244.39 79.5416 249.867 79.8659C250.112 79.8598 250.638 79.9026 250.455 80.3004C245.804 80.5513 236.588 80.4412 231.961 79.6946C230.34 79.309 229.073 78.0667 227.439 77.724C226.001 77.8403 224.771 79.0153 223.284 78.7276C224.281 79.462 225.322 80.1413 226.497 80.5513C226.87 80.5942 226.588 81.2245 226.27 80.9858C224.899 80.5819 223.779 79.664 222.586 78.9174C221.619 78.2687 220.395 78.7154 219.422 79.1132C216.858 80.2209 214.245 81.2429 211.521 81.8855C214.153 82.8279 216.809 83.6908 219.416 84.6944C220.805 85.0433 222.219 86.0102 223.675 85.7348C230.995 83.3726 240.345 82.6443 248.007 82.9442C248.344 82.9625 248.895 82.8524 248.815 83.3787C244.641 83.4521 238.712 83.3542 234.556 83.8071C226.093 85.0555 218.106 88.4765 209.618 89.6576C200.628 90.8387 191.546 91.1998 182.679 93.1826C182.697 93.1948 182.74 93.2193 182.758 93.2377C189.209 92.8093 195.383 94.8227 201.662 95.8753C215.94 93.7028 227.88 94.1128 242.268 94.4922C242.378 94.688 242.396 94.89 242.255 95.0736C218.119 93.7334 196.271 95.3673 173.083 102.564C176.033 103.531 179.062 104.357 181.993 105.41C182.232 105.496 182.74 105.624 182.465 105.991C178.848 105.135 175.341 103.647 171.688 102.821C171.033 102.968 170.39 103.329 169.711 103.207C169.607 102.723 170.201 102.717 170.519 102.552C158.891 99.4186 146.909 97.2278 134.865 98.9291C140.636 99.896 146.395 101.071 152.086 102.454C152.459 102.895 151.768 102.986 151.492 102.84C143.188 101.187 134.944 98.6231 126.432 99.2962C126.01 98.3966 130.373 98.8434 130.973 98.8128C116.603 95.9242 101.8 94.9145 87.1611 94.7186C87.1917 94.6207 87.2468 94.431 87.2774 94.3331C102.601 94.1556 117.999 95.6488 133.017 98.6353C141.444 97.5949 150.048 97.4236 158.383 99.2412C162.367 100.073 166.339 100.942 170.274 101.989C170.941 102.136 171.62 102.54 172.306 102.264C181.228 99.4125 190.457 97.7541 199.631 96.016C185.708 92.8215 181.375 93.3417 167.532 95.8324C168.432 96.1629 169.448 95.9365 170.323 96.322C170.28 96.4199 170.194 96.6158 170.145 96.7137C165.531 95.9365 160.88 96.1996 156.211 96.1017C145.617 95.6917 135.067 94.4616 124.682 92.3258C117.399 90.955 110.288 88.6478 102.895 87.889C96.4693 87.1056 89.9823 88.1521 83.5566 88.3724C83.679 88.0726 83.8687 87.8033 84.2359 87.8706C92.418 86.922 100.643 87.3198 108.837 86.7813C113.684 86.6038 118.47 85.2085 123.329 85.4533C129.088 86.714 134.614 89.0272 140.562 89.5413C144.589 88.5989 148.922 88.3847 152.992 88.8926C149.552 87.7115 145.997 86.3713 143.641 83.4154C143.249 84.1559 142.919 84.8842 142.098 84.0641C140.636 82.8157 139.442 81.2796 138.004 80.0128C137.227 79.3335 136.181 79.1622 135.238 78.8317C133.255 78.2013 131.505 77.0569 129.767 75.9493C127.356 74.5968 125.661 72.3876 123.543 70.6924C122.827 71.029 122.368 71.9224 121.554 71.9714C120.869 71.4818 120.232 70.9188 119.639 70.3191C114.657 73.177 109.945 76.5612 104.688 78.9112C97.5097 81.7325 89.8844 83.7459 82.1857 84.2355C82.2163 84.1375 82.2714 83.9478 82.302 83.8499C90.1476 82.8891 97.9809 81.2123 105.257 78.0483C110.245 75.6616 114.761 72.4488 119.565 69.7377C120.337 70.2273 120.973 70.8882 121.677 71.4696C122.283 70.9922 122.821 70.4231 123.513 70.0682C124.89 70.7842 125.844 72.2101 126.976 73.2566C129.198 71.4879 132.246 71.3166 134.504 69.6031C136.266 68.2077 137.607 66.3596 139.314 64.9092C139.981 64.2788 140.972 64.5053 141.75 64.7623C143.726 62.4184 143.983 63.2079 146.278 64.3706C148.475 62.602 150.691 60.7538 152.563 58.6119C153.934 56.8433 154.081 56.7699 156.223 57.4247C157.888 55.6805 157.955 53.9303 160.384 56.0845C162.747 54.2914 164.35 51.6904 166.437 49.6097ZM166.718 50.0565C166.896 50.3992 167.092 50.7786 167.489 50.901C167.269 50.5889 167.092 50.2095 166.718 50.0565ZM167.073 59.8053C167.948 59.0097 169.582 57.8714 168.897 56.5373C167.789 57.2289 166.988 58.465 167.073 59.8053ZM177.104 59.6094C179.558 61.8003 180.916 64.9214 183.358 67.1368C182.061 64.34 180.249 61.886 178.162 59.6278C177.807 59.6156 177.453 59.6156 177.104 59.6094ZM152.08 67.2286C150.795 67.8834 149.669 68.7891 148.555 69.6887C150.226 68.832 151.792 67.7794 153.243 66.5921C152.79 66.6717 152.49 67.0511 152.08 67.2286ZM175.176 68.5137C175.103 68.9054 175.011 69.2909 174.888 69.6704C175.586 70.3435 176.271 71.0412 177.036 71.6409C176.504 70.5577 176.106 69.3399 175.176 68.5137ZM192.532 69.3583C193.315 70.2701 194.343 70.7291 195.432 71.1514C197.244 72.9506 197.189 73.5564 199.992 73.6299C199.306 72.9567 198.174 73.1709 197.47 72.5222C196.136 71.0228 194.582 69.6948 192.532 69.3583ZM178.444 73.1464C180.023 75.729 182.232 77.8403 185.212 78.6297C183.266 76.4756 180.843 74.762 178.444 73.1464ZM198.664 78.287C196.858 79.8414 195.279 81.6345 193.492 83.2073C185.91 88.966 174.325 90.5939 165.005 91.2181C172.202 92.6012 179.809 94.1005 186.944 91.8301C198.339 89.8167 210.151 90.1533 221.233 86.4508C221.282 86.4998 221.386 86.5916 221.435 86.6405L221.307 86.2244C221.221 86.3039 221.136 86.3835 221.05 86.4569C215.683 86.0163 211.075 83.2318 206.411 80.8267C204.881 80.0862 203.247 79.4987 201.919 78.3972C200.763 77.265 199.857 77.0631 198.664 78.287ZM193.817 81.145C186.271 86.0102 177.251 88.1827 168.652 90.4593C168.97 90.4776 169.295 90.4837 169.613 90.4837L169.558 90.343C176.688 89.5964 183.829 87.8951 190.31 84.774C193.578 83.14 195.702 79.9883 198.48 77.7056C196.742 78.593 195.383 80.0189 193.817 81.145ZM202.415 78.0912C203.247 78.8745 204.325 79.309 205.34 79.7925C204.41 79.1744 203.443 78.5624 202.415 78.0912ZM116.536 86.4814C112.362 87.0444 108.14 87.6075 103.923 87.4606C107.43 87.993 111.077 88.5744 114.566 89.5229C130.838 93.4824 147.551 95.9487 164.332 95.6182C152.618 92.3197 147.796 88.911 134.767 90.5755C134.822 90.4715 134.926 90.2634 134.981 90.1655C136.279 89.9697 137.594 89.8473 138.91 89.8779C133.678 89.2231 128.763 87.3688 123.709 86.0347C121.31 85.8878 118.898 86.053 116.536 86.4814ZM142.521 89.6821C150.789 89.4985 158.053 93.7701 165.929 95.5571C170.219 94.994 174.546 94.1679 178.78 93.4151C166.541 93.8007 154.773 87.3933 142.521 89.6821Z" stroke="#DBD7D5" stroke-opacity="0.72" stroke-width="0.512196" mask="url(#path-2-outside-1_59551_61648)"/>
</g>
<path d="M267.578 118.559C266.846 118.965 264.235 119.291 262.277 118.314C260.318 117.337 259.992 114.807 259.421 113.339C258.85 111.871 259.747 118.72 259.586 117.332C259.421 115.945 259.912 115.784 259.095 113.254C258.279 110.729 256.976 110.729 257.382 109.096C257.788 107.467 255.098 93.9292 255.098 93.9292C255.098 93.9292 256.811 101.104 256.726 107.788C256.646 114.473 262.353 108.279 262.679 109.908C263.004 111.537 264.878 116.106 265.289 116.351C265.695 116.596 265.369 116.842 262.598 116.596C259.827 116.351 259.743 114.151 259.501 112.192C259.349 110.97 258.939 110.191 258.516 110.098C258.262 110.043 258 110.234 257.788 110.724C257.217 112.027 258.605 112.273 259.176 114.231C259.747 116.19 258.685 117.819 259.501 117.819C260.318 117.819 259.827 114.638 259.827 114.638C259.827 114.638 260.153 117.248 261.376 118.305C262.598 119.367 266.757 119.773 267.899 119.037C269.041 118.305 267.979 117.409 265.86 116.347C263.74 115.285 264.557 113.576 262.844 109.578C261.13 105.584 260.398 95.4734 261.13 88.2138C261.862 80.9543 259.908 74.4943 264.147 73.2124C266.858 72.3917 269.481 71.7656 271.051 69.0581C271.833 67.7086 272.155 66.1433 272.007 64.5907L271.508 59.3068C270.877 56.7304 268.555 54.5686 268.648 51.9203C268.783 48.0452 267.205 42.059 265.86 43.2055C265.61 43.417 268.796 41.3313 271.973 59.1037C275.154 76.8803 277.845 67.3405 271.973 70.4372C266.101 73.534 261.862 75.7381 263.901 71.1691C265.94 66.6002 264.147 57.145 265.204 50.5412C266.266 43.9373 266.021 46.7083 265.204 53.5575C264.388 60.4067 262.679 60.4871 259.988 56.6542C257.297 52.8214 260.479 67.0105 259.337 70.7588C258.194 74.5112 253.465 73.5297 250.939 74.4266C248.413 75.3235 248.739 62.6869 250.287 58.3634C251.836 54.044 248.739 49.5597 249.556 46.9495C250.372 44.3392 247.436 39.8549 245.803 44.9907C244.174 50.1266 244.09 51.6749 242.947 53.879C241.805 56.0789 239.44 64.1507 242.051 61.5447C244.661 58.9387 244.25 62.2766 243.599 63.8292C242.947 65.3775 242.131 67.5816 242.376 70.433C242.622 73.2886 241.97 72.8782 238.954 71.901C235.938 70.9237 239.77 68.2331 238.463 68.1485C237.16 68.0681 240.32 61.5828 240.891 60.6055C241.463 59.6283 237.08 59.751 236.424 60.1571C235.773 60.5632 233.898 67.7382 233.488 69.2062C233.082 70.6741 235.608 70.8349 236.504 71.2453C237.401 71.6514 238.218 70.268 237.972 71.571C237.727 72.874 238.869 73.6101 240.908 73.9359C242.947 74.2616 242.782 70.5134 242.457 72.2225C242.131 73.9359 245.067 73.6905 245.964 73.6101C246.861 73.5297 248.735 64.8064 249.145 63.1735C249.551 61.5447 245.964 61.7055 244.826 61.6251C243.684 61.5447 244.255 61.1343 244.906 59.9117C245.558 58.6891 250.533 47.601 249.636 41.0775C248.739 34.5541 245.723 44.995 246.62 42.3044C247.516 39.6138 250.859 37.8962 251.345 37.2447C251.836 36.5932 248.248 25.8308 251.51 22.9752C254.772 20.1196 254.607 24.5235 255.263 22.8948C255.914 21.266 260.969 25.9111 260.809 29.8244C260.644 33.7376 262.112 35.2056 264.722 41.6486C267.332 48.0917 264.07 45.968 260.238 41.0775C256.405 36.187 257.873 37.49 258.118 35.3706C258.363 33.2511 257.712 34.7994 255.918 35.3706C255.373 35.544 254.886 35.4975 254.476 35.3536C254.15 35.2394 254.264 34.7487 254.607 34.7867C255.203 34.8544 255.948 34.7825 256.815 34.3933C259.18 33.3314 259.18 31.6223 259.18 31.1316C259.18 30.6408 259.734 28.8513 258.854 28.9317C258.11 28.9952 259.1 28.0222 257.957 26.4061C255.521 22.9498 251.273 22.7383 251.354 28.771C251.434 34.8037 252.902 33.9872 256.9 39.1272C260.893 44.2631 254.615 46.0568 253.477 42.1436C252.335 38.2304 251.848 37.0881 250.055 38.3911C249.078 39.1019 249.695 39.2795 250.461 39.2965C250.71 39.3007 250.837 39.5968 250.672 39.783C250.529 39.9395 250.482 40.1299 250.626 40.3499C251.117 41.0817 254.294 47.1991 256.659 50.5412C259.023 53.8833 260.737 70.4372 259.43 72.5567C258.127 74.6762 250.952 71.7402 252.661 75.4927C254.374 79.2451 253.964 86.3355 252.661 88.5396C251.358 90.7394 243.942 101.379 243.692 102.809C243.375 104.611 251.091 92.2497 252.826 86.1747C254.332 80.8866 256.333 90.9848 253.968 94.2465C251.603 97.5083 250.787 104.438 248.506 106.557C246.226 108.677 246.958 104.599 245.896 106.312C244.834 108.025 244.102 111.693 244.102 111.939C244.102 112.184 244.348 111.858 244.674 110.145C244.999 108.431 247.77 105.089 246.302 105.825C245.016 106.468 244.297 103.862 243.481 103.313C243.362 103.232 243.244 103.198 243.125 103.215C242.148 103.38 241.822 107.293 242.228 108.351C242.634 109.413 240.841 111.287 241.251 113.161C241.657 115.035 244.839 117.155 244.839 115.035C244.839 112.916 244.107 111.854 243.616 112.345C243.125 112.835 241.171 111.613 241.251 109.489C241.331 107.365 242.474 103.702 242.313 103.291C242.148 102.885 239.948 104.188 240.193 105.411C240.439 106.633 239.216 108.182 239.216 108.508C239.216 108.833 239.948 108.017 240.439 106.959C240.93 105.897 240.604 110.221 240.519 112.015C240.439 113.808 241.742 114.87 243.375 116.008" stroke="#DBD7D5" stroke-opacity="0.72" stroke-width="0.853659" stroke-miterlimit="10"/>
<path d="M1.90158 123.633C1.90158 123.633 99.3246 115.847 161.868 115.667C224.411 115.487 321.903 123.713 321.903 123.713" stroke="#DBD7D5" stroke-opacity="0.72" stroke-width="0.853659"/>
<path d="M121.902 34.814C121.976 34.7894 122.099 34.7648 122.271 34.7402C122.591 34.6665 123.033 34.5927 123.599 34.5927C124.164 34.5681 124.828 34.6419 125.54 34.8385C125.885 34.9369 126.253 35.0598 126.622 35.2564L126.647 35.281H126.671L126.696 35.3056L126.819 35.3793C126.917 35.4285 126.991 35.4776 127.089 35.5268L127.237 35.6005H127.261V35.576L127.237 35.5022C127.212 35.4039 127.187 35.3056 127.163 35.2073C127.138 35.1581 127.114 35.0843 127.114 35.0352L127.089 34.9369C127.089 34.8877 127.089 34.8385 127.064 34.7894C127.064 34.691 127.064 34.5927 127.089 34.4944C127.114 34.2978 127.187 34.1011 127.286 33.929C127.384 33.757 127.482 33.5849 127.63 33.4374C127.876 33.1424 128.195 32.9212 128.515 32.7737C128.834 32.6262 129.178 32.5771 129.498 32.5279C129.818 32.5033 130.137 32.5033 130.408 32.5279C130.973 32.5771 131.415 32.6754 131.735 32.7246C132.054 32.7737 132.227 32.8229 132.227 32.7983C132.227 32.7737 132.079 32.7246 131.759 32.6262C131.464 32.5279 130.997 32.405 130.432 32.3313C130.137 32.2821 129.818 32.2575 129.473 32.2821C129.129 32.3067 128.761 32.3558 128.392 32.5033C128.023 32.6508 127.679 32.8966 127.384 33.2162C127.237 33.3637 127.114 33.5603 127.015 33.757C126.917 33.9536 126.843 34.1748 126.794 34.4207C126.794 34.5436 126.77 34.6665 126.77 34.7648C126.77 34.814 126.77 34.8877 126.794 34.9369V34.986L126.745 34.9614C126.376 34.7894 125.983 34.6419 125.614 34.5436C124.877 34.3469 124.164 34.3223 123.599 34.3469C123.009 34.3961 122.566 34.4944 122.247 34.5927C122.099 34.6419 121.976 34.6911 121.902 34.7156C121.829 34.7402 121.78 34.7648 121.78 34.7894C121.78 34.8385 121.829 34.814 121.902 34.814Z" fill="#DBD7D5" fill-opacity="0.72"/>
<path d="M121.902 34.942H121.923L121.943 34.9354C122.005 34.9148 122.118 34.8915 122.289 34.867L122.289 34.8674L122.3 34.865C122.612 34.793 123.045 34.7208 123.599 34.7208V34.7209L123.604 34.7207C124.154 34.6967 124.805 34.7684 125.506 34.9618C125.841 35.0576 126.194 35.1753 126.545 35.3605L126.556 35.3715L126.594 35.409H126.619L126.63 35.4154L126.753 35.4891L126.753 35.4894L126.761 35.4939C126.807 35.5166 126.847 35.5395 126.89 35.5642L126.891 35.5648C126.934 35.5891 126.979 35.6152 127.032 35.6413L127.179 35.7151L127.206 35.7286H127.237H127.261H127.389V35.6005V35.576V35.5552L127.383 35.5355L127.36 35.4664L127.287 35.1762L127.284 35.1626L127.277 35.15C127.256 35.1081 127.242 35.0553 127.242 35.0352V35.0194L127.238 35.0041L127.217 34.9211C127.217 34.881 127.215 34.8236 127.193 34.7631C127.193 34.6741 127.195 34.5989 127.213 34.5255L127.215 34.518L127.216 34.5103C127.238 34.3336 127.305 34.153 127.397 33.9926C127.496 33.8185 127.587 33.6615 127.72 33.528L127.721 33.5283L127.728 33.5194C127.96 33.2417 128.263 33.0311 128.568 32.89C128.86 32.7555 129.175 32.7071 129.489 32.6588C129.497 32.6576 129.505 32.6564 129.513 32.6552C129.825 32.6315 130.135 32.6317 130.396 32.6554L130.396 32.6555C130.799 32.6904 131.133 32.7499 131.412 32.7994C131.521 32.8189 131.622 32.8368 131.715 32.8511C131.842 32.8706 131.944 32.8899 132.024 32.9049C132.043 32.9086 132.061 32.9119 132.077 32.915C132.118 32.9225 132.155 32.929 132.183 32.9316C132.195 32.9327 132.217 32.9343 132.24 32.9304C132.251 32.9286 132.275 32.9234 132.3 32.9054C132.331 32.8829 132.355 32.8448 132.355 32.7983C132.355 32.7338 132.311 32.697 132.302 32.6897L132.302 32.6896C132.286 32.6766 132.269 32.6672 132.257 32.6608C132.23 32.6474 132.196 32.6336 132.156 32.6194C132.076 32.5907 131.957 32.5531 131.799 32.5043C131.497 32.4038 131.023 32.2794 130.451 32.2046C130.148 32.1543 129.819 32.129 129.464 32.1544C129.115 32.1793 128.731 32.2297 128.344 32.3844C127.956 32.5396 127.597 32.7966 127.292 33.1275C127.131 33.2884 127.002 33.4978 126.901 33.6997C126.797 33.9078 126.72 34.1401 126.669 34.3955L126.666 34.408V34.4207C126.666 34.4745 126.661 34.5298 126.654 34.5885C126.654 34.5924 126.654 34.5962 126.653 34.6001C126.648 34.6529 126.641 34.7113 126.641 34.7648V34.7665C126.641 34.7689 126.641 34.7714 126.641 34.774C126.314 34.6298 125.972 34.5064 125.647 34.4198C124.893 34.2187 124.166 34.1941 123.593 34.219L123.593 34.2189L123.588 34.2193C122.989 34.2692 122.537 34.3692 122.209 34.4703L122.209 34.4703L122.206 34.4712C122.13 34.4965 122.061 34.5216 122.003 34.5432C121.992 34.5471 121.982 34.5508 121.973 34.5543C121.927 34.5712 121.89 34.5847 121.862 34.5942C121.823 34.6072 121.783 34.6226 121.75 34.6413C121.734 34.6505 121.713 34.6641 121.695 34.6834C121.677 34.7023 121.651 34.7383 121.651 34.7894C121.651 34.8209 121.66 34.875 121.708 34.9139C121.75 34.9473 121.797 34.9481 121.813 34.9481C121.83 34.9481 121.849 34.9461 121.861 34.9449C121.862 34.9447 121.864 34.9445 121.865 34.9444C121.879 34.943 121.891 34.942 121.902 34.942Z" stroke="#DBD7D5" stroke-opacity="0.72" stroke-width="0.256098"/>
<path d="M137.413 43.909C137.536 43.737 137.757 43.4911 138.076 43.2699C138.396 43.0733 138.838 42.9012 139.355 42.852C139.871 42.8029 140.436 42.9258 140.903 43.2453C140.928 43.2699 140.952 43.2945 140.977 43.3191L141.026 43.3437L141.051 43.3682L141.075 43.3928L141.223 43.5403L141.37 43.6878L141.444 43.7615C141.444 43.7861 141.444 43.7615 141.444 43.737V43.7124V43.6632C141.444 43.5895 141.469 43.5157 141.469 43.442C141.493 43.3682 141.493 43.2945 141.493 43.2208L141.518 43.1224C141.592 42.852 141.69 42.6062 141.837 42.4096C141.985 42.1883 142.132 42.0163 142.304 41.8688C142.476 41.7213 142.649 41.5984 142.821 41.5001C143.165 41.3034 143.484 41.2297 143.681 41.1805C143.779 41.1559 143.878 41.1559 143.927 41.1314C143.976 41.1314 144.025 41.1068 144.025 41.1068C144.025 41.1068 144 41.0822 143.927 41.0822C143.878 41.0822 143.779 41.0576 143.656 41.0576C143.435 41.0576 143.091 41.1068 142.698 41.3034C142.501 41.4018 142.304 41.5247 142.108 41.6721C141.911 41.8442 141.739 42.0163 141.567 42.2621C141.395 42.4833 141.272 42.7537 141.198 43.0487L141.174 43.147L141.149 43.1224L141.124 43.0978L141.075 43.0487C141.051 43.0241 141.002 42.9995 140.977 42.9749C140.436 42.5816 139.773 42.4833 139.232 42.5571C138.666 42.6062 138.199 42.8275 137.855 43.0733C137.511 43.3191 137.314 43.614 137.216 43.8107C137.118 44.0319 137.093 44.1548 137.118 44.1548C137.241 44.204 137.29 44.0811 137.413 43.909Z" fill="#DBD7D5" fill-opacity="0.72"/>
<path d="M144.025 41.1068C144.116 41.0162 144.116 41.0162 144.115 41.0161L144.115 41.016L144.115 41.0157L144.114 41.0152L144.113 41.014L144.111 41.0118L144.105 41.0069C144.101 41.0035 144.096 41 144.091 40.9964C144.08 40.9892 144.067 40.982 144.051 40.9756C144.019 40.9628 143.978 40.9542 143.927 40.9542C143.917 40.9542 143.903 40.9522 143.876 40.9484C143.865 40.9469 143.852 40.9451 143.836 40.943C143.788 40.9366 143.726 40.9296 143.656 40.9296C143.417 40.9296 143.053 40.9827 142.64 41.1889C142.436 41.291 142.233 41.4181 142.031 41.5697L142.031 41.5694L142.023 41.5758C141.823 41.7515 141.643 41.9305 141.464 42.186C141.302 42.3952 141.182 42.6426 141.103 42.9095C141.102 42.9082 141.1 42.907 141.098 42.9058L141.097 42.9053C141.088 42.8988 141.081 42.8942 141.075 42.8898C141.069 42.886 141.067 42.8842 141.067 42.8842L141.06 42.8773L141.052 42.8714C140.481 42.4557 139.784 42.3533 139.218 42.4298C138.626 42.4818 138.139 42.7133 137.781 42.9691C137.416 43.2296 137.207 43.5425 137.102 43.7534L137.101 43.7534L137.099 43.7587C137.048 43.8728 137.015 43.9657 136.997 44.0331C136.989 44.0654 136.982 44.099 136.981 44.1289C136.981 44.142 136.981 44.1681 136.992 44.1959C136.998 44.2109 137.009 44.233 137.032 44.2518C137.046 44.264 137.063 44.2726 137.08 44.2776C137.129 44.2953 137.182 44.3002 137.236 44.2838C137.29 44.2673 137.33 44.2334 137.359 44.2023C137.388 44.1713 137.414 44.134 137.438 44.099C137.446 44.0876 137.453 44.0763 137.461 44.0648C137.479 44.0388 137.496 44.0123 137.517 43.9835C137.632 43.8228 137.842 43.5888 138.146 43.3772C138.45 43.1909 138.873 43.0265 139.367 42.9795C139.852 42.9333 140.383 43.048 140.821 43.3444L140.85 43.3728L140.886 43.4096L140.901 43.4243L140.92 43.4336L140.95 43.4489L140.96 43.4588L140.963 43.4555L140.96 43.4588L140.985 43.4834L141.132 43.6309L141.223 43.5403L141.132 43.6309L141.28 43.7783L141.28 43.7783L141.353 43.8521L141.434 43.7717L141.572 43.7717V43.7717V43.7717V43.7717V43.7717V43.7717V43.7717V43.7717V43.7717V43.7717V43.7716V43.7716V43.7716V43.7716V43.7716V43.7716V43.7716V43.7716V43.7716V43.7715V43.7715V43.7715V43.7715V43.7715V43.7715V43.7715V43.7715V43.7715V43.7715V43.7715V43.7714V43.7714V43.7714V43.7714V43.7714V43.7714V43.7714V43.7714V43.7714V43.7713V43.7713V43.7713V43.7713V43.7713V43.7712V43.7712V43.7712V43.7712V43.7712V43.7712V43.7711V43.7711V43.7711V43.7711V43.7711V43.7711V43.771V43.771V43.771V43.771V43.771V43.771V43.7709V43.7709V43.7709V43.7709V43.7709V43.7708V43.7708V43.7708V43.7708V43.7707V43.7707V43.7707V43.7707V43.7707V43.7706V43.7706V43.7706V43.7706V43.7705V43.7705V43.7705V43.7705V43.7705V43.7704V43.7704V43.7704V43.7704V43.7703V43.7703V43.7703V43.7703V43.7702V43.7702V43.7702V43.7702V43.7701V43.7701V43.7701V43.77V43.77V43.77V43.7699V43.7699V43.7699V43.7699V43.7698V43.7698V43.7698V43.7698V43.7697V43.7697V43.7697V43.7696V43.7696V43.7696V43.7696V43.7695V43.7695V43.7695V43.7695V43.7694V43.7694V43.7694V43.7693V43.7693V43.7693V43.7692V43.7692V43.7692V43.7691V43.7691V43.7691V43.769V43.769V43.7689V43.7689V43.7689V43.7688V43.7688V43.7688V43.7688V43.7687V43.7686V43.7686V43.7686V43.7685V43.7685V43.7685V43.7684V43.7684V43.7684V43.7683V43.7683V43.7682V43.7682V43.7682V43.7681V43.7681V43.7681V43.768V43.768V43.768V43.7679V43.7679V43.7678V43.7678V43.7678V43.7677V43.7677V43.7676V43.7676V43.7676V43.7675V43.7675V43.7674V43.7674V43.7673V43.7673V43.7672V43.7672V43.7672V43.7671V43.7671V43.767V43.767V43.7669V43.7669V43.7669V43.7668V43.7668V43.7667V43.7667V43.7666V43.7665V43.7665V43.7665V43.7664V43.7664V43.7663V43.7663V43.7662V43.7661V43.7661V43.766V43.766V43.766V43.7659V43.7659V43.7658V43.7657V43.7657V43.7656V43.7656V43.7655V43.7655V43.7655V43.7654V43.7654V43.7653V43.7652V43.7652V43.7651V43.7651V43.765V43.765V43.7649V43.7649V43.7648V43.7648V43.7647V43.7647V43.7647V43.7646V43.7646V43.7645V43.7644V43.7644V43.7643V43.7643V43.7642V43.7642V43.7641V43.7641V43.764V43.7639V43.7639V43.7638V43.7638V43.7637V43.7637V43.7636V43.7636V43.7635V43.7634V43.7634V43.7633V43.7633V43.7632V43.7632V43.7631V43.7631V43.763V43.7629V43.7629V43.7628V43.7628V43.7627V43.7627V43.7626V43.7625V43.7625V43.7624V43.7624V43.7623V43.7622V43.7622V43.7621V43.7621V43.762V43.762V43.7619V43.7618V43.7618V43.7617V43.7617V43.7616V43.7615V43.7615V43.7614V43.7613V43.7612V43.7611V43.761V43.7609V43.7607V43.7606V43.7605V43.7604V43.7603V43.7602V43.7601V43.76V43.7599V43.7598V43.7596V43.7595V43.7594V43.7593V43.7592V43.7591V43.759V43.7588V43.7587V43.7586V43.7585V43.7584V43.7583V43.7582V43.758V43.7579V43.7578V43.7577V43.7576V43.7574V43.7573V43.7572V43.7571V43.757V43.7568V43.7567V43.7566V43.7565V43.7564V43.7562V43.7561V43.756V43.7559V43.7557V43.7556V43.7555V43.7554V43.7553V43.7551V43.755V43.7549V43.7547V43.7546V43.7545V43.7544V43.7542V43.7541V43.754V43.7539V43.7537V43.7536V43.7535V43.7533V43.7532V43.7531V43.753V43.7528V43.7527V43.7526V43.7524V43.7523V43.7522V43.752V43.7519V43.7518V43.7517V43.7515V43.7514V43.7513V43.7511V43.751V43.7509V43.7507V43.7506V43.7505V43.7503V43.7502V43.7501V43.7499V43.7498V43.7497V43.7495V43.7494V43.7492V43.7491V43.749V43.7488V43.7487V43.7486V43.7484V43.7483V43.7482V43.748V43.7479V43.7477V43.7476V43.7475V43.7473V43.7472V43.7471V43.7469V43.7468V43.7466V43.7465V43.7464V43.7462V43.7461V43.7459V43.7458V43.7457V43.7455V43.7454V43.7452V43.7451V43.745V43.7448V43.7447V43.7445V43.7444V43.7443V43.7441V43.744V43.7438V43.7437V43.7435V43.7434V43.7433V43.7431V43.743V43.7428V43.7427V43.7426V43.7424V43.7423V43.7421V43.742V43.7418V43.7417V43.7416V43.7414V43.7413V43.7411V43.741V43.7408V43.7407V43.7406V43.7404V43.7403V43.7401V43.74V43.7398V43.7397V43.7395V43.7394V43.7393V43.7391V43.739V43.7388V43.7387V43.7385V43.7384V43.7383V43.7381V43.738V43.7378V43.7377V43.7375V43.7374V43.7372V43.7371V43.737V43.7124V43.7085V43.6632C141.572 43.6387 141.576 43.6124 141.583 43.5736L141.583 43.5701C141.588 43.5405 141.594 43.5028 141.596 43.4629C141.62 43.3802 141.621 43.3003 141.621 43.2365L141.642 43.1548C141.713 42.8924 141.806 42.6644 141.94 42.4864L141.94 42.4865L141.944 42.4806C142.086 42.2671 142.226 42.1044 142.388 41.966C142.554 41.8231 142.72 41.705 142.884 41.6113C143.196 41.4331 143.486 41.3609 143.684 41.3118C143.693 41.3094 143.703 41.307 143.712 41.3047C143.748 41.2957 143.784 41.2906 143.824 41.2851C143.829 41.2843 143.835 41.2835 143.84 41.2827L143.843 41.2823C143.873 41.278 143.916 41.2719 143.955 41.258C143.987 41.2548 144.016 41.247 144.035 41.2405C144.048 41.2362 144.059 41.2317 144.067 41.2283L144.077 41.2239L144.08 41.2223L144.081 41.2217L144.082 41.2215L144.082 41.2214L144.082 41.2214L144.082 41.2213L144.025 41.1068ZM144.025 41.1068L144.116 41.0162L144.241 41.1419L144.082 41.2213L144.025 41.1068ZM143.969 40.9918C143.969 40.9917 143.969 40.9917 143.969 40.9918L143.969 40.9918Z" stroke="#DBD7D5" stroke-opacity="0.72" stroke-width="0.256098"/>
<path d="M144.443 30.7325C144.566 30.6096 144.714 30.4867 144.91 30.3638C145.107 30.2409 145.328 30.0934 145.599 29.9951C145.869 29.8722 146.189 29.7985 146.508 29.7493C146.852 29.7001 147.221 29.7001 147.59 29.7739C148.352 29.9214 149.138 30.3147 149.704 31.0029C149.728 31.0521 149.777 31.0767 149.802 31.1258L149.925 31.2733C149.999 31.3717 150.048 31.47 150.097 31.5683L150.146 31.642L150.171 31.6666L150.244 31.5191C150.318 31.3717 150.392 31.1996 150.466 31.0521C150.515 30.9538 150.564 30.8555 150.613 30.7571C150.81 30.3638 151.006 30.0197 151.228 29.7001C151.449 29.3806 151.695 29.1102 151.965 28.889C152.235 28.6677 152.506 28.5203 152.776 28.4219C153.047 28.3236 153.317 28.2744 153.538 28.2744C153.759 28.2744 153.981 28.299 154.128 28.3236C154.448 28.3973 154.595 28.5203 154.62 28.4957C154.62 28.4957 154.497 28.3482 154.153 28.2253C153.981 28.1761 153.784 28.127 153.538 28.127C153.292 28.127 152.997 28.1515 152.703 28.2499C152.408 28.3482 152.088 28.4957 151.793 28.7169C151.498 28.9381 151.228 29.2331 150.982 29.5527C150.736 29.8722 150.539 30.2655 150.343 30.6588C150.294 30.7571 150.244 30.8555 150.195 30.9538L150.121 31.1013L150.023 30.9784C149.999 30.9292 149.949 30.88 149.9 30.8309C149.286 30.0934 148.425 29.651 147.59 29.5281C147.172 29.4543 146.778 29.4789 146.41 29.5281C146.041 29.6018 145.721 29.7001 145.451 29.8476C145.181 29.9705 144.935 30.1426 144.738 30.2901C144.542 30.4376 144.394 30.5851 144.296 30.7325C144.075 31.0029 144.001 31.175 144.001 31.175C144.099 31.1013 144.222 30.9538 144.443 30.7325Z" fill="#DBD7D5" fill-opacity="0.72"/>
<path d="M146.41 29.5281C146.778 29.4789 147.172 29.4543 147.59 29.5281C148.425 29.651 149.286 30.0934 149.9 30.8309L146.41 29.5281ZM146.41 29.5281C146.041 29.6018 145.721 29.7001 145.451 29.8476L146.41 29.5281ZM145.642 30.1155L145.642 30.1158L145.652 30.1117C145.906 29.9959 146.212 29.9244 146.527 29.876C146.858 29.8287 147.212 29.829 147.565 29.8994L147.565 29.8995L147.565 29.8996C148.3 30.0417 149.054 30.4192 149.597 31.0751C149.618 31.111 149.644 31.1371 149.66 31.1522C149.66 31.1532 149.661 31.1541 149.662 31.1549C149.683 31.1754 149.686 31.18 149.687 31.1831L149.694 31.1964L149.704 31.2078L149.824 31.3527C149.889 31.4397 149.933 31.5273 149.982 31.6256L149.986 31.6327L149.99 31.6393L150.04 31.7131L150.047 31.7236L150.056 31.7326L150.08 31.7572L150.206 31.8828L150.285 31.7239L150.359 31.5764L150.359 31.5764C150.397 31.5009 150.434 31.4195 150.471 31.3403L150.471 31.3393C150.508 31.259 150.544 31.181 150.58 31.1094L150.728 30.8144C150.922 30.4249 151.116 30.0863 151.333 29.773C151.548 29.4622 151.786 29.2009 152.046 28.9881C152.305 28.776 152.563 28.6357 152.82 28.5423C153.079 28.4482 153.334 28.4025 153.538 28.4025C153.749 28.4025 153.961 28.4258 154.103 28.4493C154.25 28.4834 154.356 28.5284 154.431 28.5628C154.442 28.5681 154.454 28.5737 154.466 28.5793C154.489 28.5903 154.512 28.601 154.529 28.6078C154.541 28.6131 154.562 28.621 154.584 28.6247C154.602 28.6276 154.662 28.6349 154.71 28.5862L154.793 28.5035L154.718 28.4137L154.62 28.4957C154.718 28.4137 154.718 28.4136 154.718 28.4136L154.718 28.4135L154.718 28.4133L154.717 28.4128L154.717 28.4118L154.714 28.409L154.707 28.4012C154.701 28.395 154.693 28.3868 154.683 28.377C154.662 28.3575 154.631 28.3316 154.589 28.3021C154.506 28.243 154.379 28.17 154.196 28.1047L154.196 28.1044L154.188 28.1022C154.012 28.0519 153.802 27.9989 153.538 27.9989C153.285 27.9989 152.975 28.0242 152.662 28.1284C152.357 28.23 152.025 28.3831 151.716 28.6145C151.408 28.8453 151.13 29.1501 150.88 29.4746C150.627 29.8039 150.426 30.2064 150.231 30.5951L150.228 30.6015L150.099 30.8596C150.067 30.8161 150.028 30.7772 149.998 30.747C149.997 30.7461 149.996 30.7453 149.995 30.7444C149.36 29.9849 148.473 29.5291 147.61 29.4017C147.174 29.3251 146.767 29.3513 146.393 29.4011L146.393 29.4009L146.385 29.4025C146.011 29.4772 145.679 29.5782 145.394 29.733C145.112 29.8617 144.859 30.0395 144.661 30.1876C144.459 30.3391 144.302 30.4949 144.193 30.6562C144.08 30.7942 144.004 30.9082 143.956 30.9893C143.931 31.0303 143.913 31.0628 143.902 31.0858C143.896 31.0972 143.891 31.1063 143.888 31.1128L143.885 31.1207L143.884 31.1231L143.883 31.124L143.883 31.1243L143.883 31.1244L143.883 31.1245L144.001 31.175L143.883 31.1246L143.694 31.5649L144.078 31.2774C144.136 31.2333 144.199 31.1703 144.268 31.0977C144.286 31.0798 144.303 31.061 144.322 31.0413C144.382 30.9785 144.451 30.9063 144.534 30.8231C144.65 30.7067 144.79 30.5899 144.978 30.4724C144.998 30.4598 145.019 30.447 145.039 30.4341C145.222 30.3194 145.413 30.1988 145.642 30.1155Z" stroke="#DBD7D5" stroke-opacity="0.72" stroke-width="0.256098"/>
<path d="M147.344 21.9822C147.369 21.933 147.418 21.9085 147.467 21.8347C147.516 21.7856 147.565 21.7118 147.639 21.6627C147.713 21.5889 147.786 21.5152 147.86 21.4414C147.934 21.3677 148.057 21.2939 148.155 21.1956C148.253 21.0973 148.376 21.0235 148.499 20.9498C148.573 20.9006 148.622 20.8761 148.696 20.8269C148.77 20.8023 148.843 20.7532 148.917 20.704C148.991 20.6794 149.065 20.6303 149.138 20.5811C149.212 20.5565 149.31 20.5073 149.384 20.4828C149.433 20.4582 149.458 20.4582 149.507 20.4336C149.556 20.409 149.605 20.409 149.63 20.3844C149.728 20.3599 149.802 20.3353 149.9 20.3107C149.999 20.2861 150.097 20.2615 150.195 20.237C150.294 20.2124 150.392 20.1878 150.49 20.1878C150.687 20.1632 150.908 20.1386 151.129 20.1386C151.351 20.114 151.572 20.1386 151.793 20.1632C151.916 20.1878 152.014 20.1878 152.137 20.2124C152.186 20.2124 152.26 20.237 152.309 20.237C152.358 20.2615 152.432 20.2615 152.481 20.2861C152.727 20.3353 152.948 20.4336 153.17 20.5073C153.268 20.5565 153.391 20.6303 153.489 20.6794L153.563 20.7286L153.637 20.7777L153.784 20.8761L153.932 20.9744L154.079 21.0973C154.177 21.171 154.276 21.2448 154.399 21.3185C154.62 21.466 154.866 21.5889 155.161 21.6381C155.308 21.6627 155.456 21.6381 155.579 21.5889C155.701 21.5398 155.824 21.466 155.923 21.3677C156.119 21.1956 156.242 20.9744 156.365 20.8023C156.611 20.4336 156.881 20.1386 157.201 19.8928C157.521 19.647 157.84 19.4995 158.135 19.3766C158.75 19.1308 159.315 19.1062 159.684 19.1308C159.88 19.1308 160.028 19.1554 160.126 19.18C160.224 19.2045 160.274 19.2045 160.274 19.18C160.274 19.18 160.224 19.1554 160.126 19.1062C160.028 19.0816 159.88 19.0325 159.684 19.0079C159.29 18.9587 158.725 18.9587 158.061 19.18C157.717 19.3029 157.373 19.4504 157.029 19.6962C156.685 19.942 156.365 20.2615 156.119 20.6548C155.996 20.8515 155.874 21.0235 155.701 21.171C155.554 21.3185 155.357 21.3923 155.161 21.3677C154.964 21.3431 154.743 21.2448 154.546 21.0973C154.448 21.0235 154.35 20.9498 154.251 20.8761L154.104 20.7532L153.932 20.6303L153.76 20.5319L153.686 20.4828L153.588 20.4336C153.465 20.3844 153.342 20.3107 153.243 20.2615C152.998 20.1632 152.752 20.0649 152.506 20.0157C152.457 19.9911 152.383 19.9911 152.334 19.9666C152.285 19.942 152.211 19.942 152.137 19.942C152.014 19.9174 151.891 19.8928 151.769 19.8928C151.523 19.8928 151.277 19.8682 151.056 19.8682C150.834 19.8682 150.589 19.9174 150.392 19.942C150.294 19.942 150.171 19.9911 150.072 20.0157C149.974 20.0403 149.876 20.0649 149.777 20.0895C149.679 20.114 149.581 20.1632 149.482 20.1878C149.433 20.2124 149.384 20.2124 149.335 20.237C149.286 20.2615 149.237 20.2861 149.212 20.2861C149.114 20.3353 149.04 20.3599 148.966 20.409C148.893 20.4336 148.819 20.5073 148.72 20.5319C148.647 20.5811 148.573 20.6057 148.499 20.6548C148.425 20.704 148.376 20.7532 148.303 20.8023C148.18 20.9006 148.057 20.9744 147.958 21.0727C147.86 21.171 147.762 21.2448 147.688 21.3431C147.614 21.4414 147.541 21.5152 147.467 21.5889C147.393 21.6627 147.344 21.7364 147.319 21.7856C147.27 21.8593 147.246 21.9085 147.221 21.933C147.172 22.0314 147.147 22.056 147.147 22.0805C147.221 22.1051 147.27 22.056 147.344 21.9822Z" fill="#DBD7D5" fill-opacity="0.72"/>
<path d="M147.434 22.0728L147.449 22.0581L147.458 22.0395C147.46 22.0366 147.463 22.0324 147.487 22.0082L147.488 22.0071C147.508 21.9868 147.537 21.9579 147.566 21.9161C147.583 21.8989 147.601 21.8779 147.616 21.8599C147.625 21.8502 147.633 21.8413 147.639 21.8344C147.664 21.8066 147.686 21.785 147.71 21.7692L147.72 21.7622L147.729 21.7532L147.951 21.532C147.979 21.504 148.017 21.4748 148.068 21.4357C148.071 21.4336 148.073 21.4315 148.076 21.4295C148.128 21.3897 148.19 21.342 148.246 21.2862C148.331 21.2009 148.44 21.1349 148.565 21.0596L148.565 21.0597L148.57 21.0563C148.604 21.0336 148.633 21.0166 148.663 20.9982L148.664 20.9978C148.691 20.9816 148.72 20.9643 148.753 20.9424C148.835 20.9121 148.912 20.8615 148.975 20.8194C149.056 20.7892 149.133 20.7388 149.196 20.6967C149.233 20.6833 149.273 20.6661 149.309 20.6509L149.312 20.6496C149.356 20.6306 149.394 20.6145 149.425 20.6042L149.433 20.6014L149.441 20.5973C149.457 20.5893 149.469 20.5855 149.486 20.5797L149.487 20.5794C149.506 20.573 149.532 20.5645 149.564 20.5481C149.574 20.5431 149.584 20.5404 149.605 20.5345C149.607 20.5338 149.61 20.533 149.613 20.5321C149.624 20.5289 149.641 20.5239 149.658 20.5165C149.667 20.5129 149.676 20.5084 149.686 20.5024C149.727 20.4917 149.764 20.4811 149.8 20.4709L149.8 20.4707C149.844 20.4584 149.885 20.4466 149.931 20.4349L150.226 20.3612C150.328 20.3358 150.411 20.3158 150.49 20.3158H150.498L150.506 20.3149C150.702 20.2903 150.917 20.2667 151.129 20.2667H151.137L151.144 20.2659C151.347 20.2433 151.552 20.2653 151.774 20.2899C151.838 20.3025 151.896 20.309 151.949 20.3149L151.951 20.3151C152.007 20.3213 152.057 20.3269 152.112 20.3379L152.125 20.3404H152.137C152.146 20.3404 152.163 20.3432 152.198 20.3502C152.2 20.3505 152.201 20.3509 152.203 20.3512C152.223 20.3552 152.251 20.3609 152.28 20.3635C152.312 20.3756 152.344 20.382 152.365 20.3861C152.367 20.3865 152.369 20.3868 152.37 20.3871C152.406 20.3942 152.418 20.3975 152.424 20.4006L152.439 20.4083L152.456 20.4117C152.619 20.4442 152.765 20.4977 152.918 20.5537C152.983 20.5778 153.05 20.6023 153.12 20.6259C153.165 20.6483 153.214 20.676 153.267 20.7053L153.269 20.7062C153.32 20.7349 153.375 20.7652 153.425 20.7903L153.492 20.8351L153.492 20.8351L153.566 20.8843L153.566 20.8843L153.713 20.9826L153.855 21.0771L153.997 21.1957L153.997 21.1958L154.002 21.1997L154.004 21.2009C154.101 21.2736 154.203 21.3501 154.33 21.4267C154.56 21.5797 154.822 21.7115 155.14 21.7644C155.314 21.7934 155.485 21.7642 155.626 21.7078C155.761 21.654 155.898 21.5726 156.01 21.4613C156.173 21.3178 156.293 21.1389 156.39 20.9931C156.418 20.951 156.444 20.9117 156.469 20.8767L156.469 20.8768L156.472 20.8733C156.711 20.515 156.972 20.2307 157.279 19.9943C157.585 19.759 157.892 19.6166 158.183 19.4952C158.775 19.2586 159.32 19.2349 159.675 19.2586L159.675 19.2589H159.684C159.87 19.2589 160.007 19.2821 160.095 19.3042C160.146 19.3169 160.196 19.3265 160.237 19.3265C160.256 19.3265 160.289 19.3248 160.322 19.3083C160.34 19.2992 160.361 19.2839 160.378 19.2591C160.395 19.2335 160.402 19.2054 160.402 19.18V19.1008L160.331 19.0654L160.274 19.18L160.331 19.0654L160.331 19.0654L160.331 19.0654L160.331 19.0654L160.33 19.0651L160.329 19.0643L160.322 19.0608L160.294 19.047L160.183 18.9917L160.171 18.9854L160.157 18.982C160.138 18.9773 160.116 18.9712 160.091 18.9642C159.998 18.9385 159.862 18.9012 159.7 18.8808C159.291 18.8298 158.706 18.8301 158.021 19.0585L158.021 19.0585L158.018 19.0594C157.669 19.1842 157.312 19.3364 156.954 19.592C156.598 19.8464 156.267 20.1778 156.011 20.587C155.89 20.7801 155.775 20.939 155.618 21.0738L155.618 21.0735L155.611 21.0805C155.489 21.2029 155.33 21.2598 155.177 21.2406C155.007 21.2195 154.807 21.1325 154.623 20.9949L154.331 20.7756L154.186 20.6548L154.186 20.6545L154.178 20.649L154.006 20.5261L154.006 20.5255L153.995 20.5191L153.827 20.4229L153.757 20.3762L153.75 20.3718L153.743 20.3682L153.645 20.3191L153.645 20.3187L153.635 20.3147C153.558 20.2837 153.485 20.2448 153.413 20.2058C153.376 20.1859 153.338 20.1659 153.301 20.147L153.301 20.1466L153.291 20.1426L153.285 20.1403C153.048 20.0454 152.798 19.9454 152.545 19.8931C152.51 19.8784 152.473 19.8711 152.45 19.8665C152.448 19.8662 152.447 19.8659 152.445 19.8656C152.41 19.8585 152.397 19.8551 152.391 19.852L152.334 19.9666L152.391 19.852C152.346 19.8292 152.296 19.8212 152.256 19.8175C152.22 19.8143 152.183 19.814 152.15 19.8139C152.032 19.7904 151.902 19.7648 151.769 19.7648C151.649 19.7648 151.53 19.7588 151.409 19.7526L151.399 19.7521C151.283 19.7462 151.167 19.7402 151.056 19.7402C150.885 19.7402 150.696 19.7684 150.535 19.7923C150.481 19.8005 150.429 19.8081 150.383 19.814C150.318 19.8154 150.253 19.8311 150.198 19.8463C150.168 19.8545 150.144 19.8619 150.121 19.8687C150.094 19.8771 150.069 19.8846 150.041 19.8915L149.746 19.9652C149.69 19.9793 149.635 19.9999 149.588 20.0176L149.585 20.0187C149.535 20.0377 149.492 20.0534 149.451 20.0636L149.438 20.067L149.425 20.0733C149.415 20.0783 149.404 20.0816 149.378 20.0881C149.377 20.0884 149.376 20.0886 149.375 20.0889C149.351 20.0947 149.315 20.1037 149.278 20.1224C149.252 20.1352 149.231 20.1456 149.214 20.1531C149.208 20.1554 149.204 20.157 149.201 20.1581H149.182L149.155 20.1716C149.122 20.1878 149.094 20.2005 149.065 20.2135C149.053 20.2193 149.04 20.2251 149.026 20.2313C148.988 20.2488 148.949 20.2682 148.908 20.2939C148.867 20.3104 148.827 20.3352 148.799 20.353C148.794 20.356 148.79 20.3589 148.785 20.3614C148.747 20.3854 148.718 20.4006 148.689 20.4077L148.668 20.4131L148.649 20.4254C148.62 20.4449 148.59 20.46 148.553 20.4788L148.55 20.48C148.515 20.4978 148.472 20.5193 148.428 20.5483C148.387 20.576 148.352 20.6035 148.322 20.6275L148.321 20.6286C148.29 20.6534 148.263 20.6747 148.232 20.6958L148.231 20.6954L148.223 20.7023C148.18 20.7364 148.138 20.7666 148.095 20.7979C148.079 20.8098 148.062 20.8219 148.045 20.8344C147.986 20.8783 147.924 20.9259 147.868 20.9822C147.836 21.0139 147.806 21.0415 147.774 21.0704C147.759 21.0845 147.743 21.0989 147.727 21.1143C147.679 21.1588 147.629 21.2079 147.586 21.2663C147.518 21.3564 147.45 21.4243 147.376 21.4984C147.297 21.578 147.24 21.6595 147.209 21.7209C147.19 21.7485 147.175 21.7734 147.163 21.7931C147.159 21.7992 147.156 21.8048 147.152 21.8099C147.145 21.8217 147.14 21.8299 147.135 21.836C147.132 21.841 147.13 21.8428 147.13 21.8428L147.116 21.8572L147.106 21.8758C147.088 21.9137 147.073 21.9388 147.061 21.9594C147.059 21.9634 147.057 21.9672 147.055 21.9709C147.054 21.9719 147.053 21.973 147.053 21.9742C147.043 21.9909 147.019 22.0315 147.019 22.0805V22.1728L147.107 22.202C147.185 22.228 147.254 22.2125 147.311 22.178C147.356 22.1513 147.397 22.1105 147.429 22.0783C147.431 22.0764 147.433 22.0746 147.434 22.0728Z" stroke="#DBD7D5" stroke-opacity="0.72" stroke-width="0.256098"/>
</g>
<defs>
<clipPath id="clip0_59551_61648">
<rect width="320" height="116.518" fill="white" transform="matrix(-1 0 0 1 320 6.48242)"/>
</clipPath>
<clipPath id="clip1_59551_61648">
<rect width="174.125" height="56" fill="white" transform="translate(81.2501 52.5)"/>
</clipPath>
</defs>
</svg>
