<svg width="72" height="72" viewBox="0 0 72 72" fill="none" xmlns="http://www.w3.org/2000/svg">
<g clip-path="url(#clip0_59551_61668)">
<path d="M37.3714 58.7575L37.2 58.8861C36.8143 59.1861 36.7285 59.7004 37.0285 60.0861C37.2857 60.4718 37.8428 60.5575 38.2285 60.2575L38.4 60.129C38.7857 59.829 38.8714 59.3147 38.5714 58.929C38.3143 58.5433 37.7571 58.4575 37.3714 58.7575Z" fill="#F0ECE9"/>
<path d="M49.5003 48.9868L49.1575 49.2439C48.7718 49.5439 48.7289 50.101 49.0289 50.4439C49.3289 50.7868 49.886 50.8725 50.2289 50.5725L50.5718 50.2725C50.9146 49.9725 51.0003 49.4153 50.6575 49.0725C50.4003 48.7296 49.886 48.6868 49.5003 48.9868Z" fill="#F0ECE9"/>
<path d="M46.5433 51.5571L46.2004 51.8571C45.8575 52.1571 45.8147 52.7143 46.1147 53.0571C46.4147 53.4 46.9718 53.4428 47.3147 53.1428L47.6575 52.8428C48.0004 52.5428 48.0433 51.9857 47.7433 51.6428C47.4433 51.3 46.8861 51.2143 46.5433 51.5571Z" fill="#F0ECE9"/>
<path d="M53.2717 42.5576C53.0146 42.1718 52.4574 42.0861 52.0717 42.3433C51.686 42.6004 51.6003 43.1576 51.8574 43.5433C51.9003 43.629 51.986 43.7147 52.0289 43.8004C52.2432 44.229 52.7574 44.3576 53.186 44.1433C53.6146 43.929 53.786 43.4147 53.5289 42.9861C53.4432 42.8576 53.3574 42.6861 53.2717 42.5576Z" fill="#F0ECE9"/>
<path d="M53.0139 45.9839C52.5853 45.7696 52.071 45.941 51.8567 46.3696C51.8139 46.4981 51.7281 46.5839 51.6853 46.7124C51.4281 47.0981 51.5567 47.6553 51.9853 47.8696C52.371 48.1267 52.9281 47.9553 53.1424 47.5696C53.2281 47.441 53.3139 47.2696 53.3996 47.141C53.6139 46.7124 53.4424 46.1981 53.0139 45.9839Z" fill="#F0ECE9"/>
<path d="M43.5424 54.0008L43.1996 54.2579C42.8139 54.5579 42.771 55.1151 43.071 55.4579C43.371 55.8008 43.9282 55.8865 44.271 55.5865L44.6139 55.3294C44.9996 55.0294 45.0424 54.4722 44.7424 54.1294C44.4424 53.7865 43.9282 53.7008 43.5424 54.0008Z" fill="#F0ECE9"/>
<path d="M40.4996 56.4013L40.1567 56.6585C39.771 56.9585 39.7282 57.4728 39.9853 57.8585C40.2853 58.2442 40.7996 58.287 41.1853 58.0299L41.5282 57.7728C41.9139 57.4728 41.9568 56.9585 41.6996 56.5728C41.3996 56.187 40.8853 56.1442 40.4996 56.4013Z" fill="#F0ECE9"/>
<path d="M49.1999 41.4003C49.2428 41.4432 49.3285 41.4861 49.3713 41.5289C49.757 41.7861 50.3142 41.7003 50.5713 41.3146C50.8285 40.9289 50.7428 40.4146 50.357 40.1146L50.1856 39.9861C49.7999 39.6861 49.2856 39.7718 48.9856 40.1575C48.7285 40.5861 48.8142 41.1003 49.1999 41.4003Z" fill="#F0ECE9"/>
<path d="M53.4 36.085C51.7286 35.6136 50.1857 35.1421 48.8143 34.5421C48.3429 34.3279 48.1286 34.1564 48.0429 34.0707C48.2572 33.985 48.6857 33.8993 49.3286 33.8993C49.3286 33.8993 54 33.7279 55.1572 33.5993C57.3 33.385 59.1857 32.185 60.2572 30.4707C60.5143 30.085 60.3857 29.5279 59.9572 29.3136C59.5715 29.0564 59.0143 29.185 58.8 29.6136C58.0286 30.8993 56.6143 31.7564 54.9857 31.9279C53.8715 32.0564 49.2429 32.2279 49.2429 32.2279C48.5143 32.2707 47.3143 32.3136 46.6715 33.0421C46.3715 33.385 46.2429 33.7707 46.2857 34.2421C46.3715 35.3993 47.6572 35.9564 48.0857 36.1707C49.5429 36.8136 51.2572 37.3279 52.8857 37.7993C59.1857 39.6421 62.8715 41.2279 61.3715 47.0564C60.8143 49.285 58.1572 53.7421 55.8 56.9993C55.5429 57.385 55.6286 57.8993 56.0143 58.1993C56.4 58.4564 56.9572 58.3707 57.2143 57.985C59.5715 54.7279 62.4 50.0136 63.0429 47.485C65.1 39.5564 58.5857 37.6279 53.4 36.085Z" fill="#F0ECE9"/>
<path fill-rule="evenodd" clip-rule="evenodd" d="M49.9964 19.8884C49.9971 19.0327 50.3373 18.2122 50.9424 17.607C51.5474 17.0018 52.3678 16.6614 53.2236 16.6605H58.2041C59.06 16.6614 59.8806 17.0017 60.4858 17.6069C61.0911 18.212 61.4316 19.0325 61.4327 19.8884V23.8289C61.4323 23.9313 61.3914 24.0293 61.3189 24.1015C61.2464 24.1738 61.1482 24.2143 61.0458 24.2143H59.4188V20.5315C59.4194 20.4608 59.4059 20.3907 59.3793 20.3252C59.3526 20.2598 59.3133 20.2002 59.2635 20.1501C59.2137 20.0999 59.1545 20.0601 59.0892 20.0329C59.024 20.0057 58.954 19.9917 58.8833 19.9917C58.8126 19.9917 58.7427 20.0057 58.6774 20.0329C58.6122 20.0601 58.5529 20.0999 58.5032 20.1501C58.4534 20.2002 58.414 20.2598 58.3874 20.3252C58.3607 20.3907 58.3473 20.4608 58.3478 20.5315V24.2143H53.0798V20.5315C53.0798 20.3895 53.0234 20.2532 52.923 20.1528C52.8226 20.0524 52.6864 19.996 52.5443 19.996C52.4023 19.996 52.2661 20.0524 52.1657 20.1528C52.0653 20.2532 52.0089 20.3895 52.0089 20.5315V24.2143H50.3818C50.3312 24.2143 50.2811 24.2043 50.2343 24.1849C50.1875 24.1655 50.145 24.1371 50.1093 24.1013C50.0735 24.0655 50.0451 24.023 50.0257 23.9763C50.0064 23.9295 49.9964 23.8793 49.9964 23.8287V19.8884ZM50.3818 25.2857H61.0459C61.4323 25.2854 61.8029 25.1319 62.0762 24.8587C62.3495 24.5856 62.5033 24.2151 62.5039 23.8287V19.8884C62.5026 18.7484 62.0492 17.6555 61.2431 16.8495C60.437 16.0434 59.3441 15.5901 58.2041 15.5889H53.2236C50.8525 15.5889 48.9254 17.5174 48.9254 19.8882V23.8288C48.9256 24.215 49.0791 24.5854 49.3522 24.8586C49.6253 25.1317 49.9956 25.2854 50.3818 25.2857Z" fill="#F0ECE9" stroke="#F0ECE9" stroke-width="0.428571"/>
<path d="M55.7144 14.1433C57.1665 14.1433 58.3362 12.9735 58.3362 11.5214V9.90798C58.3362 8.45588 57.1665 7.28613 55.7144 7.28613C54.2623 7.28613 53.0925 8.45588 53.0925 9.90798V11.5214C53.0925 12.9735 54.2623 14.1433 55.7144 14.1433ZM53.8993 9.90798C53.8993 8.89958 54.706 8.09286 55.7144 8.09286C56.7228 8.09286 57.5295 8.89958 57.5295 9.90798V11.5214C57.5295 12.5298 56.7228 13.3366 55.7144 13.3366C54.706 13.3366 53.8993 12.5298 53.8993 11.5214V9.90798Z" fill="#FAEB50" stroke="#FAEB50" stroke-width="0.428571"/>
<path d="M21.4291 39.4289C24.5148 39.4289 27.0005 36.9431 27.0005 33.8574V30.4289C27.0005 27.3431 24.5148 24.8574 21.4291 24.8574C18.3434 24.8574 15.8577 27.3431 15.8577 30.4289V33.8574C15.8577 36.9431 18.3434 39.4289 21.4291 39.4289ZM17.572 30.4289C17.572 28.286 19.2862 26.5717 21.4291 26.5717C23.572 26.5717 25.2862 28.286 25.2862 30.4289V33.8574C25.2862 36.0003 23.572 37.7146 21.4291 37.7146C19.2862 37.7146 17.572 36.0003 17.572 33.8574V30.4289Z" fill="#FAEB50"/>
<path d="M43.3285 35.1427C42.9857 34.8856 42.5571 34.6713 42.1285 34.457C40.7571 33.7284 39.6428 33.0427 39.7714 32.2284C39.8143 31.9713 39.9 31.2427 41.7857 30.7713C44.1857 30.1284 46.6285 30.0856 49.2 30.0427C49.9714 30.0427 51.9428 29.957 52.2 29.957C53.4 29.957 55.0285 29.957 55.9285 29.057C56.3571 28.6284 56.5714 28.0713 56.5714 27.4284C56.5714 26.957 56.1857 26.5713 55.7143 26.5713C55.2428 26.5713 54.8571 26.957 54.8571 27.4284C54.8571 27.6856 54.7714 27.7713 54.7285 27.8141C54.3 28.2427 53.0143 28.1999 52.2 28.1999C51.9428 28.1999 49.9285 28.2427 49.1571 28.2856C46.5857 28.3284 43.9285 28.3713 41.3571 29.057C39.3857 29.5713 38.2714 30.557 38.0571 31.9284C37.7571 33.9856 39.8143 35.0999 41.3143 35.9141C41.7 36.1284 42.0857 36.3427 42.3428 36.5141C43.3714 37.2427 43.8857 37.9713 43.8428 38.7427C43.7143 41.0999 38.7 43.8856 37.0285 44.8284C36.9428 44.8713 36.2571 45.257 35.1 45.857C35.3571 46.3713 35.5714 46.9284 35.7 47.4856C36.9857 46.7999 37.7571 46.3713 37.8428 46.3284C41.5714 44.2713 45.3857 41.7856 45.5143 38.8713C45.6 37.4999 44.8714 36.257 43.3285 35.1427Z" fill="#F0ECE9"/>
<path d="M26.1003 50.0563C26.0574 49.1563 25.2431 48.4277 24.3003 48.4277H18.5574C17.5717 48.4277 16.8003 49.1563 16.7574 50.0563C16.7574 50.0563 16.286 52.542 16.286 52.5849C16.2003 53.0992 16.586 53.6134 17.1431 53.6134H25.7145C26.2288 53.6134 26.6574 53.0992 26.5717 52.5849L26.1003 50.0563ZM18.1717 51.8563C18.1717 51.8563 18.4717 50.2277 18.4717 50.1849C18.4717 50.1849 18.5145 50.142 18.5574 50.142H24.2574C24.3003 50.142 24.3431 50.2277 24.386 50.3134L24.686 51.8563H18.1717Z" fill="#F0ECE9"/>
<path d="M28.9713 44.6559C28.7571 42.6845 27.0856 41.1416 25.1142 41.1416H17.7428C15.7285 41.1416 14.0999 42.6416 13.8856 44.6559L12.4285 58.7987C12.2142 60.7702 13.7999 62.5702 15.8142 62.5702H26.9999C28.9713 62.5702 30.5999 60.7702 30.3856 58.7987L28.9713 44.6559ZM20.5713 42.8559H22.2856V44.1416C22.2856 44.3987 22.1142 44.5702 21.8571 44.5702H20.9999C20.7428 44.5702 20.5713 44.3987 20.5713 44.1416V42.8559ZM15.5999 44.8273C15.7285 43.713 16.6285 42.8559 17.7428 42.8559H18.8571V44.1416C18.8571 45.3416 19.7999 46.2845 20.9999 46.2845H21.8571C23.0571 46.2845 23.9999 45.3416 23.9999 44.1416V42.8559H25.1142C26.2285 42.8559 27.1713 43.713 27.2571 44.8273L28.4999 56.9987H14.3571L15.5999 44.8273ZM27.0428 60.8559H15.8571C14.8713 60.8559 14.0999 59.9559 14.1856 58.9702L14.2285 58.713H28.7142L28.7571 58.9702C28.7571 59.4845 28.5428 60.7273 27.0428 60.8559Z" fill="#F0ECE9"/>
<path d="M0.857143 65.9994C1.33053 65.9994 1.71429 65.6157 1.71429 65.1423C1.71429 64.6689 1.33053 64.2852 0.857143 64.2852C0.383756 64.2852 0 64.6689 0 65.1423C0 65.6157 0.383756 65.9994 0.857143 65.9994Z" fill="#F0ECE9"/>
<path d="M4.71476 64.2852H3.42904C2.95761 64.2852 2.5719 64.6709 2.5719 65.1423C2.5719 65.6137 2.95761 65.9994 3.42904 65.9994H4.71476C5.18619 65.9994 5.5719 65.6137 5.5719 65.1423C5.5719 64.6709 5.18619 64.2852 4.71476 64.2852Z" fill="#F0ECE9"/>
<path d="M68.5717 64.2852H67.286C66.8145 64.2852 66.4288 64.6709 66.4288 65.1423C66.4288 65.6137 66.8145 65.9994 67.286 65.9994H68.5717C69.0431 65.9994 69.4288 65.6137 69.4288 65.1423C69.4288 64.6709 69.0431 64.2852 68.5717 64.2852Z" fill="#F0ECE9"/>
<path d="M71.1433 65.9994C71.6167 65.9994 72.0004 65.6157 72.0004 65.1423C72.0004 64.6689 71.6167 64.2852 71.1433 64.2852C70.6699 64.2852 70.2861 64.6689 70.2861 65.1423C70.2861 65.6157 70.6699 65.9994 71.1433 65.9994Z" fill="#F0ECE9"/>
<path d="M50.6568 67.7148H47.0997C46.6711 67.7148 46.3282 68.1006 46.3282 68.572C46.3282 69.0434 46.6711 69.4291 47.0997 69.4291H50.6568C51.0854 69.4291 51.4282 69.0434 51.4282 68.572C51.4282 68.1006 51.0854 67.7148 50.6568 67.7148Z" fill="#F0ECE9"/>
<path d="M64.7571 24.001H45.7714C45.3429 24.001 45 24.3867 45 24.8581C45 25.3295 45.3429 25.7153 45.7714 25.7153H64.7571C65.1857 25.7153 65.5286 25.3295 65.5286 24.8581C65.5286 24.3867 65.1857 24.001 64.7571 24.001Z" fill="#F0ECE9"/>
<path d="M24.9433 67.7148H21.3862C20.9576 67.7148 20.6147 68.1006 20.6147 68.572C20.6147 69.0434 20.9576 69.4291 21.3862 69.4291H24.9433C25.3719 69.4291 25.7147 69.0434 25.7147 68.572C25.7147 68.1006 25.3719 67.7148 24.9433 67.7148Z" fill="#F0ECE9"/>
<path d="M44.5715 67.7148H27.4287C26.9572 67.7148 26.5715 68.1006 26.5715 68.572C26.5715 69.0434 26.9572 69.4291 27.4287 69.4291H34.243V70.2863H30.8572C30.3858 70.2863 30.0001 70.672 30.0001 71.1434C30.0001 71.6148 30.3858 72.0006 30.8572 72.0006H41.5715C42.043 72.0006 42.4287 71.6148 42.4287 71.1434C42.4287 70.672 42.043 70.2863 41.5715 70.2863H37.7572V69.4291H44.5715C45.043 69.4291 45.4287 69.0434 45.4287 68.572C45.4287 68.1006 45.043 67.7148 44.5715 67.7148Z" fill="#F0ECE9"/>
<path d="M64.5853 64.2852H34.2853V49.5852C34.2853 47.0566 32.7853 44.828 30.5138 43.6709C30.5995 43.928 30.6424 44.1852 30.6424 44.4423L30.771 45.8995C31.8424 46.7995 32.5281 48.128 32.5281 49.5423V64.2852H10.2853V49.5852C10.2853 48.128 10.971 46.8423 12.0424 45.9423L12.171 44.4852C12.2138 44.228 12.2567 43.928 12.2995 43.6709C10.071 44.828 8.52811 47.0138 8.52811 49.5852V64.2852H7.37097C6.81383 64.2852 6.38525 64.6709 6.38525 65.1423C6.38525 65.6138 6.81383 65.9995 7.37097 65.9995H64.5424C65.0995 65.9995 65.5281 65.6138 65.5281 65.1423C65.5281 64.6709 65.1424 64.2852 64.5853 64.2852Z" fill="#F0ECE9"/>
</g>
<defs>
<clipPath id="clip0_59551_61668">
<rect width="72" height="72" fill="white"/>
</clipPath>
</defs>
</svg>
