<svg width="162" height="45" viewBox="0 0 162 45" fill="none" xmlns="http://www.w3.org/2000/svg">
<g clip-path="url(#clip0_59551_61613)">
<path d="M56.644 20.5576C55.4741 20.1229 54.6573 19.6662 54.1937 19.193C53.2812 18.296 52.825 17.212 52.825 15.9428C52.825 14.6735 53.2996 13.5657 54.2526 12.6155C56.105 10.73 58.5223 9.78906 61.5043 9.78906C64.731 9.78906 67.4959 11.0767 69.7973 13.6537C70.0033 13.8976 70.099 14.1985 70.0861 14.558C70.0861 14.9817 69.9352 15.343 69.6335 15.6438C69.3318 15.9446 68.9676 16.095 68.5445 16.095C68.1214 16.095 67.7792 15.9611 67.5217 15.6915C67.2641 15.4219 67.0783 15.2293 66.9624 15.1137C65.4576 13.6133 63.6382 12.8632 61.5043 12.8632C59.3703 12.8632 57.6669 13.5308 56.3939 14.8624C56.0848 15.2348 55.9303 15.6768 55.9303 16.1885C55.9689 16.792 56.2835 17.201 56.8758 17.4193L66.3645 20.5539C67.5345 20.9905 68.3513 21.4453 68.8149 21.9186C69.7274 22.8155 70.1836 23.8995 70.1836 25.1687C70.1836 26.438 69.7071 27.5477 68.756 28.496C66.9054 30.3797 64.4863 31.3224 61.5043 31.3224C58.2647 31.3224 55.4998 30.0348 53.2113 27.4578C53.0182 27.1882 52.9225 26.8874 52.9225 26.5536C52.9225 26.1299 53.0734 25.7685 53.3751 25.4677C53.6768 25.1669 54.041 25.0165 54.4641 25.0165C54.8872 25.0165 55.2294 25.1504 55.4869 25.42C55.7445 25.6896 55.9303 25.8822 56.0462 25.9978C57.551 27.4982 59.3703 28.2483 61.5043 28.2483C63.6382 28.2483 65.3436 27.5825 66.6147 26.2491C66.9238 25.8767 67.0783 25.4347 67.0783 24.923C67.0397 24.3213 66.7251 23.9105 66.1328 23.6922L56.644 20.5576Z" fill="white"/>
<path d="M91.7861 28.0961C89.6264 30.2494 87.0546 31.3261 84.0707 31.3261C81.0869 31.3261 78.5409 30.2751 76.4327 28.1731C74.3245 26.0712 73.2704 23.5326 73.2704 20.5576C73.2704 17.5825 74.3245 15.0458 76.4327 12.942C78.5409 10.8401 81.0869 9.78906 84.0707 9.78906C87.0546 9.78906 89.5988 10.8401 91.7088 12.942C93.817 15.044 94.8711 17.5825 94.8711 20.5576V29.7891C94.8711 30.2128 94.7203 30.5741 94.4186 30.8749C94.1169 31.1757 93.7526 31.3261 93.3295 31.3261C92.9064 31.3261 92.5422 31.1757 92.2386 30.8749C91.9369 30.5741 91.7861 30.2109 91.7861 29.7891V28.0961ZM84.0707 12.865C81.9368 12.865 80.1174 13.6152 78.6126 15.1155C77.1078 16.6159 76.3554 18.4299 76.3554 20.5576C76.3554 22.6852 77.1078 24.4993 78.6126 25.9996C80.1174 27.5 81.9368 28.2502 84.0707 28.2502C86.2047 28.2502 88.0241 27.5 89.5289 25.9996C91.0337 24.4993 91.7861 22.6852 91.7861 20.5576C91.7861 18.4299 91.0337 16.6159 89.5289 15.1155C88.0241 13.6152 86.2047 12.865 84.0707 12.865Z" fill="white"/>
<path d="M110.302 0.556403C110.727 0.556403 111.09 0.706806 111.391 1.00761C111.693 1.30842 111.844 1.67159 111.844 2.09345C111.844 2.51532 111.693 2.87849 111.391 3.17929C111.09 3.4801 110.725 3.6305 110.302 3.6305C106.187 3.6305 104.13 5.68113 104.13 9.78421V10.9379H108.779C109.204 10.9379 109.566 11.0883 109.868 11.3891C110.17 11.6899 110.321 12.0531 110.321 12.475C110.321 12.8968 110.17 13.26 109.868 13.5608C109.566 13.8616 109.202 14.012 108.779 14.012H104.13V29.7805C104.13 30.2042 103.98 30.5656 103.678 30.8664C103.376 31.1672 103.012 31.3176 102.589 31.3176C102.166 31.3176 101.801 31.1672 101.5 30.8664C101.198 30.5656 101.047 30.2024 101.047 29.7805V14.012H99.5038C99.0789 14.012 98.7165 13.8616 98.4148 13.5608C98.1131 13.26 97.9622 12.8968 97.9622 12.475C97.9622 12.0531 98.1131 11.6899 98.4148 11.3891C98.7165 11.0883 99.0807 10.9379 99.5038 10.9379H101.047V9.78421C101.047 3.6305 104.132 0.552734 110.306 0.552734L110.302 0.556403Z" fill="white"/>
<path d="M141.442 23.2502V29.7891C141.442 30.2128 141.291 30.5741 140.99 30.8749C140.688 31.1757 140.324 31.3261 139.901 31.3261C139.478 31.3261 139.113 31.1757 138.812 30.8749C138.51 30.5741 138.359 30.2109 138.359 29.7891V19.0205C138.359 12.8668 141.444 9.78906 147.618 9.78906C148.043 9.78906 148.405 9.93947 148.707 10.2403C149.009 10.5411 149.159 10.9042 149.159 11.3261C149.159 11.748 149.009 12.1111 148.707 12.412C148.405 12.7128 148.041 12.8632 147.618 12.8632C143.503 12.8632 141.446 14.9138 141.446 19.0169V23.2483L141.442 23.2502Z" fill="white"/>
<path d="M153.866 23.2502V29.7891C153.866 30.2128 153.715 30.5741 153.413 30.8749C153.112 31.1757 152.747 31.3261 152.324 31.3261C151.901 31.3261 151.537 31.1757 151.235 30.8749C150.934 30.5741 150.783 30.2109 150.783 29.7891V19.0205C150.783 12.8668 153.868 9.78906 160.041 9.78906C160.466 9.78906 160.829 9.93947 161.131 10.2403C161.432 10.5411 161.583 10.9042 161.583 11.3261C161.583 11.748 161.432 12.1111 161.131 12.412C160.829 12.7128 160.465 12.8632 160.041 12.8632C155.926 12.8632 153.87 14.9138 153.87 19.0169V23.2483L153.866 23.2502Z" fill="white"/>
<path d="M130.831 28.0961C128.672 30.2494 126.1 31.3261 123.116 31.3261C120.132 31.3261 117.586 30.2751 115.478 28.1731C113.37 26.0712 112.316 23.5326 112.316 20.5576C112.316 17.5825 113.37 15.0458 115.478 12.942C117.586 10.8401 120.132 9.78906 123.116 9.78906C126.1 9.78906 128.644 10.8401 130.754 12.942C132.862 15.044 133.918 17.5825 133.918 20.5576V29.7891C133.918 30.2128 133.767 30.5741 133.466 30.8749C133.164 31.1757 132.8 31.3261 132.377 31.3261C131.954 31.3261 131.589 31.1757 131.288 30.8749C130.986 30.5741 130.835 30.2109 130.835 29.7891V28.0961H130.831ZM123.116 12.865C120.982 12.865 119.163 13.6152 117.658 15.1155C116.153 16.6159 115.401 18.4299 115.401 20.5576C115.401 22.6852 116.153 24.4993 117.658 25.9996C119.163 27.5 120.982 28.2502 123.116 28.2502C125.25 28.2502 127.069 27.5 128.574 25.9996C130.079 24.4993 130.831 22.6852 130.831 20.5576C130.831 18.4299 130.079 16.6159 128.574 15.1155C127.069 13.6152 125.25 12.865 123.116 12.865Z" fill="white"/>
<path d="M33.0097 2.51467H43.696C44.3913 2.51467 44.9561 1.95158 44.9561 1.25825C44.9561 0.563096 44.3913 0 43.696 0H22.9562C10.6032 0 0.332659 10.077 0.419121 22.3918C0.477989 30.8859 5.34008 38.2612 12.4263 41.9516H1.73996C1.04459 41.9516 0.479828 42.5147 0.479828 43.208C0.479828 43.9013 1.04459 44.4644 1.73996 44.4644H22.4797C34.8309 44.4644 45.1033 34.3874 45.015 22.0726C44.9561 13.5785 40.094 6.20323 33.0078 2.51284L33.0097 2.51467Z" fill="white"/>
<path d="M22.231 18.4249L18.87 21.7741L22.231 25.1234L28.9511 18.4249L22.231 11.7246L18.87 15.0738L22.231 18.4249Z" fill="#FFF200"/>
<path d="M32.3107 18.4249L28.9515 21.7741L32.3107 25.1234L39.0308 18.4249L32.3107 11.7246L28.9515 15.0738L32.3107 18.4249Z" fill="#00A651"/>
<path d="M12.1524 18.4249L8.79144 21.7741L12.1524 25.1234L18.8707 18.4249L12.1524 11.7246L8.79144 15.0738L12.1524 18.4249Z" fill="#ED1C24"/>
<path d="M25.7032 35.8783C23.8323 35.8783 21.9633 35.5739 20.2469 34.9668C19.5718 34.7283 19.2425 33.9671 19.5442 33.3178C19.8091 32.7511 20.4622 32.4851 21.0545 32.696C23.9777 33.7378 27.4306 33.7378 30.3556 32.696C30.9461 32.4851 31.601 32.7511 31.8659 33.3178C32.1676 33.9671 31.8402 34.7265 31.1632 34.9668C29.4468 35.5739 27.5759 35.8783 25.7069 35.8783H25.7032Z" fill="#292929"/>
<path d="M53.1044 39.8896H53.7777L54.6846 43.7818H54.8281L55.8969 39.9777H56.5978L57.6666 43.7818H57.8193L58.717 39.8896H59.3903L58.3215 44.3651H57.1993L56.2483 40.8654L55.2972 44.3651H54.175L53.1062 39.8896H53.1044Z" fill="white"/>
<path d="M60.9849 44.3656H60.3116V37.9404H60.9849V40.1415C61.4632 39.914 61.925 39.8021 62.3665 39.8021C62.9644 39.8021 63.3672 39.9635 63.5733 40.2845C63.7793 40.6073 63.8823 41.1796 63.8823 42.0032V44.3656H63.209V42.0215C63.209 41.4015 63.1483 40.976 63.0251 40.7467C62.9018 40.5175 62.6443 40.4019 62.2488 40.4019C61.8532 40.4019 61.5074 40.4698 61.1542 40.6073L60.9831 40.6697V44.3656H60.9849Z" fill="white"/>
<path d="M68.1837 43.8093L68.445 43.7818L68.4634 44.3101C67.7809 44.4055 67.1977 44.4531 66.7139 44.4531C66.0682 44.4531 65.6101 44.2661 65.3415 43.8937C65.073 43.5214 64.9368 42.9399 64.9368 42.1531C64.9368 40.5848 65.5623 39.7998 66.8132 39.7998C67.4185 39.7998 67.8692 39.9685 68.169 40.306C68.4689 40.6435 68.6179 41.1736 68.6179 41.8944L68.5811 42.4044H65.6193C65.6193 42.8996 65.7095 43.2664 65.8879 43.5049C66.0682 43.7433 66.3809 43.8625 66.8261 43.8625C67.2713 43.8625 67.7257 43.8442 68.1856 43.8093H68.1837ZM67.9409 41.8669C67.9409 41.3185 67.8526 40.9297 67.676 40.7041C67.4994 40.4766 67.2124 40.3647 66.8151 40.3647C66.4177 40.3647 66.1179 40.484 65.9173 40.7224C65.7168 40.9608 65.6138 41.3424 65.6083 41.8688H67.9428L67.9409 41.8669Z" fill="white"/>
<path d="M69.6643 44.3646V39.8892H70.3284V40.4982C70.849 40.1405 71.3972 39.9039 71.9712 39.792V40.4725C71.7192 40.5202 71.4579 40.5954 71.1857 40.6962C70.9134 40.7971 70.7055 40.887 70.562 40.964L70.3376 41.0796V44.3646H69.6643Z" fill="white"/>
<path d="M75.7314 43.8093L75.9926 43.7818L76.011 44.3101C75.3285 44.4055 74.7453 44.4531 74.2615 44.4531C73.6158 44.4531 73.1577 44.2661 72.8892 43.8937C72.6206 43.5214 72.4844 42.9399 72.4844 42.1531C72.4844 40.5848 73.1099 39.7998 74.3608 39.7998C74.9661 39.7998 75.4168 39.9685 75.7166 40.306C76.0165 40.6435 76.1655 41.1736 76.1655 41.8944L76.1287 42.4044H73.1669C73.1669 42.8996 73.2571 43.2664 73.4355 43.5049C73.6158 43.7433 73.9285 43.8625 74.3737 43.8625C74.8189 43.8625 75.2733 43.8442 75.7332 43.8093H75.7314ZM75.4885 41.8669C75.4885 41.3185 75.4002 40.9297 75.2236 40.7041C75.047 40.4766 74.76 40.3647 74.3627 40.3647C73.9653 40.3647 73.6655 40.484 73.465 40.7224C73.2644 40.9608 73.1614 41.3424 73.1559 41.8688H75.4904L75.4885 41.8669Z" fill="white"/>
<path d="M79.251 44.3652V38.2354H83.0664V39.1029H80.2481V41.1701H82.5899V42.0376H80.2481V44.3652H79.251Z" fill="white"/>
<path d="M88.1396 43.709C87.7717 44.2097 87.1241 44.461 86.1969 44.461C85.2698 44.461 84.6204 44.2097 84.2488 43.7053C83.8772 43.2009 83.6932 42.4085 83.6932 41.33C83.6932 40.2515 83.8809 39.4482 84.2543 38.9236C84.6278 38.399 85.2753 38.1367 86.1969 38.1367C87.1186 38.1367 87.7643 38.3972 88.1359 38.9199C88.5075 39.4427 88.6933 40.246 88.6933 41.3319C88.6933 42.4177 88.5093 43.2119 88.1414 43.7127L88.1396 43.709ZM85.0288 43.0652C85.233 43.4174 85.6211 43.5934 86.1951 43.5934C86.7691 43.5934 87.1572 43.421 87.3577 43.0744C87.5583 42.7277 87.6576 42.1481 87.6576 41.3337C87.6576 40.5193 87.5546 39.9269 87.3485 39.5564C87.1425 39.1859 86.758 39.0025 86.1951 39.0025C85.6322 39.0025 85.2459 39.1877 85.038 39.5564C84.8283 39.9269 84.7234 40.5157 84.7234 41.3245C84.7234 42.1334 84.8246 42.713 85.0288 43.0652Z" fill="white"/>
<path d="M89.851 44.3652V38.2354H91.5839L92.9562 43.0226L94.3304 38.2354H96.0725V44.3652H95.0681V39.3359H94.9338L93.4805 44.1139H92.4393L90.986 39.3359H90.8517V44.3652H89.8546H89.851Z" fill="white"/>
<path d="M101.657 43.709C101.289 44.2097 100.642 44.461 99.7144 44.461C98.7872 44.461 98.1378 44.2097 97.7662 43.7053C97.3946 43.2009 97.2107 42.4085 97.2107 41.33C97.2107 40.2515 97.3983 39.4482 97.7718 38.9236C98.1452 38.399 98.7928 38.1367 99.7144 38.1367C100.636 38.1367 101.282 38.3972 101.653 38.9199C102.025 39.4427 102.211 40.246 102.211 41.3319C102.211 42.4177 102.027 43.2119 101.659 43.7127L101.657 43.709ZM98.5462 43.0652C98.7504 43.4174 99.1386 43.5934 99.7126 43.5934C100.287 43.5934 100.675 43.421 100.875 43.0744C101.076 42.7277 101.175 42.1481 101.175 41.3337C101.175 40.5193 101.072 39.9269 100.866 39.5564C100.66 39.1859 100.275 39.0025 99.7126 39.0025C99.1496 39.0025 98.7633 39.1877 98.5554 39.5564C98.3457 39.9269 98.2409 40.5157 98.2409 41.3245C98.2409 42.1334 98.342 42.713 98.5462 43.0652Z" fill="white"/>
<path d="M105.953 44.3671H105.28V39.8916H105.944V40.2053C106.393 39.9375 106.828 39.8018 107.253 39.8018C107.809 39.8018 108.199 39.954 108.42 40.2585C108.617 40.1392 108.872 40.0329 109.187 39.9412C109.501 39.8494 109.777 39.8018 110.017 39.8018C110.614 39.8018 111.017 39.9613 111.223 40.2805C111.429 40.5996 111.532 41.1737 111.532 42.0028V44.3652H110.859V42.0211C110.859 41.4012 110.798 40.9756 110.679 40.7464C110.559 40.5171 110.305 40.4015 109.915 40.4015C109.719 40.4015 109.514 40.429 109.305 40.4859C109.095 40.5428 108.933 40.5978 108.821 40.651L108.65 40.7317C108.727 40.9279 108.766 41.3645 108.766 42.0376V44.3652H108.092V42.056C108.092 41.4122 108.033 40.9738 107.918 40.7445C107.802 40.5153 107.546 40.3997 107.15 40.3997C106.959 40.3997 106.762 40.4272 106.562 40.4841C106.361 40.5409 106.207 40.596 106.1 40.6492L105.947 40.7299V44.3634L105.953 44.3671Z" fill="white"/>
<path d="M115.833 43.8093L116.094 43.7818L116.113 44.3101C115.43 44.4055 114.847 44.4531 114.363 44.4531C113.718 44.4531 113.26 44.2661 112.991 43.8937C112.722 43.5214 112.586 42.9399 112.586 42.1531C112.586 40.5848 113.212 39.7998 114.463 39.7998C115.068 39.7998 115.519 39.9685 115.818 40.306C116.118 40.6435 116.267 41.1736 116.267 41.8944L116.232 42.4044H113.271C113.271 42.8996 113.361 43.2664 113.539 43.5049C113.719 43.7433 114.032 43.8625 114.477 43.8625C114.923 43.8625 115.377 43.8442 115.837 43.8093H115.833ZM115.59 41.8669C115.59 41.3185 115.502 40.9297 115.325 40.7041C115.149 40.4766 114.862 40.3647 114.464 40.3647C114.067 40.3647 113.767 40.484 113.567 40.7224C113.366 40.9608 113.263 41.3424 113.258 41.8688H115.592L115.59 41.8669Z" fill="white"/>
<path d="M120.366 43.8093L120.627 43.7818L120.645 44.3101C119.963 44.4055 119.38 44.4531 118.896 44.4531C118.25 44.4531 117.792 44.2661 117.524 43.8937C117.255 43.5214 117.119 42.9399 117.119 42.1531C117.119 40.5848 117.744 39.7998 118.995 39.7998C119.601 39.7998 120.051 39.9685 120.351 40.306C120.651 40.6435 120.8 41.1736 120.8 41.8944L120.765 42.4044H117.803C117.803 42.8996 117.893 43.2664 118.072 43.5049C118.252 43.7433 118.563 43.8625 119.01 43.8625C119.457 43.8625 119.91 43.8442 120.37 43.8093H120.366ZM120.123 41.8669C120.123 41.3185 120.035 40.9297 119.858 40.7041C119.682 40.4766 119.395 40.3647 118.997 40.3647C118.6 40.3647 118.3 40.484 118.099 40.7224C117.899 40.9608 117.796 41.3424 117.79 41.8688H120.125L120.123 41.8669Z" fill="white"/>
<path d="M124.145 40.4704H122.717V42.609C122.717 43.1226 122.754 43.4601 122.829 43.6197C122.905 43.7811 123.081 43.8618 123.363 43.8618L124.161 43.8086L124.205 44.3625C123.804 44.4285 123.499 44.4616 123.289 44.4616C122.822 44.4616 122.5 44.3478 122.32 44.1222C122.139 43.8948 122.051 43.4638 122.051 42.8255V40.4722H121.415V39.8908H122.051V38.5225H122.715V39.8908H124.143V40.4722L124.145 40.4704Z" fill="white"/>
<path d="M126.38 40.3997C125.727 40.3997 125.401 40.6271 125.401 41.0802C125.401 41.2893 125.476 41.436 125.625 41.5241C125.774 41.6103 126.117 41.7001 126.648 41.7919C127.18 41.8836 127.557 42.0138 127.78 42.1807C128 42.3476 128.113 42.6613 128.113 43.1198C128.113 43.5784 127.964 43.9158 127.667 44.1304C127.371 44.345 126.939 44.4533 126.37 44.4533C125.999 44.4533 125.563 44.4111 125.061 44.3285L124.792 44.2845L124.829 43.7031C125.511 43.804 126.025 43.8553 126.372 43.8553C126.72 43.8553 126.985 43.8003 127.167 43.6902C127.349 43.5802 127.441 43.3949 127.441 43.1363C127.441 42.8777 127.364 42.7016 127.208 42.6081C127.051 42.5164 126.711 42.4283 126.185 42.3439C125.659 42.2596 125.283 42.1385 125.063 41.9771C124.842 41.8157 124.73 41.5186 124.73 41.082C124.73 40.6455 124.884 40.3245 125.191 40.1154C125.499 39.9063 125.883 39.8018 126.345 39.8018C126.709 39.8018 127.167 39.8439 127.717 39.9265L127.969 39.9705L127.951 40.5428C127.287 40.4474 126.762 40.3997 126.38 40.3997Z" fill="white"/>
<path d="M130.643 44.9998V44.1231C130.96 44.1231 131.177 44.0754 131.295 43.98C131.41 43.8847 131.469 43.6737 131.469 43.3454V38.2354H132.457L132.466 43.4169C132.466 44.0552 132.332 44.4789 132.062 44.688C131.793 44.8971 131.32 45.0017 130.643 45.0017V44.9998Z" fill="white"/>
<path d="M138.017 43.709C137.649 44.2097 137.001 44.461 136.074 44.461C135.147 44.461 134.498 44.2097 134.126 43.7053C133.755 43.2009 133.569 42.4085 133.569 41.33C133.569 40.2515 133.756 39.4482 134.13 38.9236C134.503 38.399 135.151 38.1367 136.072 38.1367C136.994 38.1367 137.64 38.3972 138.011 38.9199C138.383 39.4427 138.569 40.246 138.569 41.3319C138.569 42.4177 138.385 43.2119 138.017 43.7127V43.709ZM134.906 43.0652C135.11 43.4174 135.498 43.5934 136.072 43.5934C136.646 43.5934 137.035 43.421 137.235 43.0744C137.436 42.7277 137.535 42.1481 137.535 41.3337C137.535 40.5193 137.432 39.9269 137.226 39.5564C137.02 39.1859 136.635 39.0025 136.072 39.0025C135.51 39.0025 135.123 39.1877 134.915 39.5564C134.706 39.9269 134.601 40.5157 134.601 41.3245C134.601 42.1334 134.702 42.713 134.906 43.0652Z" fill="white"/>
<path d="M139.726 44.3652V38.2354H141.459L142.832 43.0226L144.204 38.2354H145.944V44.3652H144.94V39.3359H144.806L143.352 44.1139H142.311L140.858 39.3359H140.724V44.3652H139.726Z" fill="white"/>
<path d="M151.535 43.709C151.167 44.2097 150.52 44.461 149.593 44.461C148.666 44.461 148.016 44.2097 147.645 43.7053C147.273 43.2009 147.087 42.4085 147.087 41.33C147.087 40.2515 147.275 39.4482 147.648 38.9236C148.022 38.399 148.669 38.1367 149.591 38.1367C150.513 38.1367 151.158 38.3972 151.53 38.9199C151.901 39.4427 152.087 40.246 152.087 41.3319C152.087 42.4177 151.903 43.2119 151.535 43.7127V43.709ZM148.425 43.0652C148.629 43.4174 149.017 43.5934 149.591 43.5934C150.165 43.5934 150.553 43.421 150.754 43.0744C150.954 42.7277 151.053 42.1481 151.053 41.3337C151.053 40.5193 150.95 39.9269 150.744 39.5564C150.538 39.1859 150.154 39.0025 149.591 39.0025C149.028 39.0025 148.642 39.1877 148.434 39.5564C148.224 39.9269 148.119 40.5157 148.119 41.3245C148.119 42.1334 148.22 42.713 148.425 43.0652Z" fill="white"/>
</g>
<defs>
<clipPath id="clip0_59551_61613">
<rect width="161.163" height="45" fill="white" transform="translate(0.418579)"/>
</clipPath>
</defs>
</svg>
